<svg width="107" height="97" viewBox="0 0 107 97" fill="none" xmlns="http://www.w3.org/2000/svg">
<g id="cat">
<path id="Vector 8" d="M11.6433 2.20976C7.97023 4.13863 7.27792 31.2716 7.39091 44.5969L42.186 22.5297C40.3611 10.7154 16.2347 -0.201329 11.6433 2.20976Z" fill="#FFD952"/>
<path id="Vector 9" d="M105.145 21.2397C107.846 24.3885 98.4708 49.8596 93.4454 62.2016L68.2791 32.5996C74.3374 22.294 101.648 17.164 105.145 21.2397Z" fill="#FFD952"/>
<path id="Vector 32" d="M98.3989 26.7466C95.1703 25.5986 87.6735 28.043 84.3286 29.4087L93.2396 47.3684C96.3046 40.9728 101.627 27.8946 98.3989 26.7466Z" fill="#FC7890"/>
<path id="Vector 31" d="M23.2394 10.5497C19.6777 8.24391 16.6784 7.80542 15.2374 8.43031C14.6467 8.68641 14.4057 9.34255 14.3011 9.97774C14.0906 11.2562 13.7649 14.0328 13.6142 19.4903C13.3816 27.912 13.9832 30.1936 13.9832 30.1936L32.0986 19.3584C30.7901 17.8455 27.6319 13.3932 23.2394 10.5497Z" fill="#FC7890"/>
<path id="Vector 26" d="M53.8753 14.7122C18.0881 10.3393 2.97264 33.6173 7.04141 61.356C11.1102 89.0947 73.6464 101.431 89.5694 75.1685C95.4909 65.4018 106.525 21.1456 53.8753 14.7122Z" fill="#FF8A00"/>
<g id="Mask group">
<mask id="mask0_2_392" style="mask-type:alpha" maskUnits="userSpaceOnUse" x="6" y="14" width="89" height="76">
<path id="Vector 55" d="M53.9236 14.7217C18.1365 10.3488 3.02098 33.6268 7.08975 61.3655C11.1585 89.1042 73.6948 101.441 89.6178 75.178C95.5393 65.4114 106.574 21.1551 53.9236 14.7217Z" fill="#FF8D00"/>
</mask>
<g mask="url(#mask0_2_392)">
<rect id="Rectangle 15" x="55.9717" y="9.43701" width="10.086" height="29.9699" rx="5.04302" transform="rotate(11.3104 55.9717 9.43701)" fill="#FCB358"/>
<rect id="Rectangle 17" x="-7.02148" y="52.9126" width="3.59646" height="29.9699" rx="1.79823" transform="rotate(-108.69 -7.02148 52.9126)" fill="#FCB358"/>
<rect id="Rectangle 18" x="-10.6948" y="60.9941" width="3.59646" height="29.9699" rx="1.79823" transform="rotate(-108.69 -10.6948 60.9941)" fill="#FCB358"/>
<rect id="Rectangle 19" x="-6.68213" y="67.3804" width="3.59646" height="29.9699" rx="1.79823" transform="rotate(-108.69 -6.68213 67.3804)" fill="#FCB358"/>
<rect id="Rectangle 20" width="3.59646" height="29.9699" rx="1.79823" transform="matrix(0.660139 -0.751144 -0.751144 -0.660139 105.678 75.4534)" fill="#FCB358"/>
<rect id="Rectangle 21" width="3.59646" height="29.9699" rx="1.79823" transform="matrix(0.660139 -0.751144 -0.751144 -0.660139 105.96 84.3262)" fill="#FCB358"/>
<rect id="Rectangle 22" width="3.59646" height="29.9699" rx="1.79823" transform="matrix(0.660139 -0.751144 -0.751144 -0.660139 99.7998 88.6777)" fill="#FCB358"/>
<rect id="Rectangle 16" x="69.2524" y="12.0933" width="10.086" height="18.7312" rx="5.04302" transform="rotate(11.3104 69.2524 12.0933)" fill="#FCB358"/>
<rect id="Rectangle 14" x="42.6904" y="6.78076" width="10.086" height="18.7312" rx="5.04302" transform="rotate(11.3104 42.6904 6.78076)" fill="#FCB358"/>
<ellipse id="Ellipse 45" cx="44.9506" cy="81.4373" rx="33.8602" ry="22.6215" transform="rotate(11.3104 44.9506 81.4373)" fill="#FFD952"/>
</g>
</g>
<g id="Group 162">
<line id="Line 1" x1="44.0726" y1="64.2736" x2="25.5357" y2="55.5701" stroke="black" stroke-width="0.411867"/>
<line id="Line 2" x1="43.487" y1="65.9256" x2="27.8323" y2="61.9128" stroke="black" stroke-width="0.411867"/>
<line id="Line 3" y1="-0.205934" x2="20.4785" y2="-0.205934" transform="matrix(0.999025 -0.0441468 -0.0441468 -0.999025 52.0718 65.6697)" stroke="black" stroke-width="0.411867"/>
<line id="Line 4" y1="-0.205934" x2="16.1608" y2="-0.205934" transform="matrix(0.989666 0.143388 0.143388 -0.989666 52.0156 67.4216)" stroke="black" stroke-width="0.411867"/>
</g>
<g id="Group 159">
<circle id="Ellipse 9" cx="35.9821" cy="43.3719" r="11.1381" transform="rotate(14.5671 35.9821 43.3719)" fill="#63EF71"/>
<ellipse id="Ellipse 12" cx="35.9821" cy="43.3719" rx="3.71794" ry="11.1381" transform="rotate(14.5671 35.9821 43.3719)" fill="black"/>
</g>
<g id="Group 160">
<circle id="Ellipse 10" cx="68.8701" cy="49.7243" r="11.1381" transform="rotate(7.21141 68.8701 49.7243)" fill="#63EF71"/>
<ellipse id="Ellipse 13" cx="68.4637" cy="49.6964" rx="3.71794" ry="11.1381" transform="rotate(7.21141 68.4637 49.6964)" fill="black"/>
<circle id="Ellipse 51" cx="32.6532" cy="40.9354" r="2.54335" fill="white"/>
<circle id="Ellipse 53" cx="65.4852" cy="46.0221" r="2.54335" fill="white"/>
<circle id="Ellipse 52" cx="34.0399" cy="45.5597" r="1.61849" fill="white"/>
<circle id="Ellipse 54" cx="66.8724" cy="50.6463" r="1.61849" fill="white"/>
</g>
<path id="Subtract" fill-rule="evenodd" clip-rule="evenodd" d="M49.5649 72.2703C48.6048 72.6504 47.5197 72.7401 46.4437 72.4605C45.6888 72.2643 45.0184 71.9071 44.4598 71.4353C45.1406 71.2011 45.6948 70.641 45.8895 69.892C46.1982 68.7041 45.4855 67.491 44.2976 67.1823C43.7272 67.034 43.151 67.1213 42.6718 67.3837C42.686 67.0285 42.7381 66.6693 42.8312 66.3112C43.5317 63.6156 46.2848 61.9982 48.9805 62.6987C51.6761 63.3992 53.2935 66.1523 52.593 68.848C52.5783 68.9046 52.5627 68.9607 52.5462 69.0163C52.2611 68.6834 51.8748 68.4312 51.4184 68.3126C50.2306 68.004 49.0174 68.7167 48.7087 69.9045C48.4708 70.8199 48.8396 71.7504 49.5649 72.2703Z" fill="#FC7890"/>
<g id="Group 161">
<path id="Rectangle 20_2" d="M38.3384 74.0903L53.3149 77.0858C52.6906 80.207 49.6543 82.2312 46.533 81.6069L42.8595 80.8722C39.7383 80.2479 37.7141 77.2116 38.3384 74.0903Z" fill="#FC7890"/>
<g id="Mask group_2">
<mask id="mask1_2_392" style="mask-type:alpha" maskUnits="userSpaceOnUse" x="38" y="74" width="16" height="8">
<path id="Rectangle 21_2" d="M38.3384 74.0903L53.3149 77.0858C52.6906 80.207 49.6543 82.2312 46.533 81.6069L42.8595 80.8722C39.7383 80.2479 37.7141 77.2116 38.3384 74.0903Z" fill="#FC7890"/>
</mask>
<g mask="url(#mask1_2_392)">
<ellipse id="Ellipse 46" cx="46.5335" cy="81.6068" rx="6.05162" ry="4.03441" transform="rotate(11.3104 46.5335 81.6068)" fill="#FFC8D2"/>
</g>
</g>
</g>
</g>
</svg>
