<svg width="135" height="128" viewBox="0 0 135 128" fill="none" xmlns="http://www.w3.org/2000/svg">
<g id="cat">
<path id="Vector 8" d="M11.8493 31.1535C8.82672 34.1813 16.4861 61.1022 20.6937 74.1842L48.1603 41.7661C42.7322 30.6979 15.6276 27.3687 11.8493 31.1535Z" fill="#4017E6"/>
<path id="Vector 9" d="M109.737 21.1421C113.364 23.4112 111.965 51.3656 110.813 65.0591L76.9405 43.6569C79.736 31.6504 105.042 18.205 109.737 21.1421Z" fill="#4017E6"/>
<path id="Vector 32" d="M104.789 28.6365C101.258 28.499 94.6301 33.2097 91.7575 35.5822L106.05 50.5214C107.101 43.2837 108.32 28.7741 104.789 28.6365Z" fill="#FF49B6"/>
<path id="Vector 31" d="M25.8279 35.7982C21.4269 34.5715 18.2555 35.1604 17.148 36.3154C16.7845 36.6945 16.7589 37.2562 16.826 37.7771C16.9836 39.0008 17.488 41.8398 19.1018 47.5576C21.4617 55.919 22.7553 57.98 22.7553 57.98L37.2563 41.7456C35.5032 40.6586 31.0258 37.2469 25.8279 35.7982Z" fill="#FF49B6"/>
<path id="Vector 26" d="M57.2637 30.4776C20.6927 37.1745 12.9697 64.7346 25.5019 90.7882C38.034 116.842 103.383 109.761 110.984 79.0146C113.81 67.5806 111.067 20.6252 57.2637 30.4776Z" fill="#5B32FF"/>
<g id="Mask group">
<mask id="mask0_2_354" style="mask-type:alpha" maskUnits="userSpaceOnUse" x="19" y="29" width="93" height="78">
<path id="Vector 55" d="M57.3145 30.4723C20.7434 37.1691 13.0205 64.7293 25.5527 90.7829C38.0848 116.836 103.434 109.756 111.035 79.0092C113.861 67.5752 111.118 20.6198 57.3145 30.4723Z" fill="#FCB358"/>
</mask>
<g mask="url(#mask0_2_354)">
<rect id="Rectangle 15" x="52.0283" y="20.6899" width="19.4677" height="30.9058" rx="6.72129" transform="rotate(-6.03305 52.0283 20.6899)" fill="white"/>
<rect id="Rectangle 16" x="33.7808" y="12.2366" width="19.4677" height="30.9058" rx="6.72129" transform="rotate(-6.03305 33.7808 12.2366)" fill="white"/>
<rect id="Rectangle 18" x="-0.603516" y="69.9661" width="19.4677" height="30.9058" rx="6.72129" transform="rotate(-46.0259 -0.603516 69.9661)" fill="white"/>
<rect id="Rectangle 19" x="114.055" y="45.1011" width="19.4677" height="30.9058" rx="6.72129" transform="rotate(30.2369 114.055 45.1011)" fill="white"/>
<rect id="Rectangle 17" x="66.3198" y="7.86401" width="19.4677" height="30.9058" rx="6.72129" transform="rotate(-6.03305 66.3198 7.86401)" fill="white"/>
<ellipse id="Ellipse 45" cx="68.9905" cy="98.9016" rx="34.9176" ry="23.3279" transform="rotate(-6.03306 68.9905 98.9016)" fill="#4017E5"/>
</g>
</g>
<g id="Group 162">
<line id="Line 1" x1="62.8551" y1="82.2329" x2="41.9329" y2="79.3641" stroke="black" stroke-width="0.336065"/>
<line id="Line 2" x1="62.7792" y1="84.0384" x2="46.1361" y2="84.9009" stroke="black" stroke-width="0.336065"/>
<line id="Line 3" y1="-0.168032" x2="21.118" y2="-0.168032" transform="matrix(0.940444 -0.339949 -0.339949 -0.940444 71.1528 81.1919)" stroke="black" stroke-width="0.336065"/>
<line id="Line 4" y1="-0.168032" x2="16.6654" y2="-0.168032" transform="matrix(0.987415 -0.15815 -0.15815 -0.987415 71.6357 82.9338)" stroke="black" stroke-width="0.336065"/>
</g>
<g id="Group 159">
<circle id="Ellipse 9" cx="48.4614" cy="64.189" r="11.4859" transform="rotate(-2.77645 48.4614 64.189)" fill="#F7CA56"/>
<ellipse id="Ellipse 12" cx="48.4611" cy="64.189" rx="3.83404" ry="11.4859" transform="rotate(-2.77645 48.4611 64.189)" fill="black"/>
</g>
<g id="Group 160">
<circle id="Ellipse 10" cx="82.7873" cy="60.3321" r="11.4859" transform="rotate(-10.1321 82.7873 60.3321)" fill="#F7CA56"/>
<ellipse id="Ellipse 13" cx="82.3783" cy="60.4292" rx="3.83404" ry="11.4859" transform="rotate(-10.1321 82.3783 60.4292)" fill="black"/>
<circle id="Ellipse 47" cx="51.8895" cy="59.2147" r="2.59686" transform="rotate(15.2369 51.8895 59.2147)" fill="white"/>
<circle id="Ellipse 49" cx="85.6366" cy="54.8228" r="2.59686" transform="rotate(15.2369 85.6366 54.8228)" fill="white"/>
<circle id="Ellipse 48" cx="48.3619" cy="63.0984" r="1.55812" transform="rotate(15.2369 48.3619 63.0984)" fill="white"/>
<circle id="Ellipse 50" cx="83.17" cy="59.344" r="1.55812" transform="rotate(15.2369 83.17 59.344)" fill="white"/>
</g>
<path id="Subtract" fill-rule="evenodd" clip-rule="evenodd" d="M70.714 88.4597C69.8859 89.1289 68.8454 89.5507 67.7004 89.6062C66.8969 89.6452 66.1271 89.4997 65.4322 89.2068C66.0301 88.767 66.4034 88.0454 66.3647 87.2485C66.3034 85.9843 65.2289 85.0092 63.9648 85.0705C63.358 85.1 62.8178 85.3628 62.4269 85.7681C62.3317 85.4142 62.2726 85.0448 62.2542 84.6638C62.115 81.795 64.3279 79.3566 67.1966 79.2175C70.0654 79.0783 72.5038 81.2912 72.6429 84.16C72.6459 84.2203 72.6477 84.2805 72.6486 84.3404C72.2655 84.1002 71.8076 83.9706 71.3218 83.9942C70.0576 84.0555 69.0825 85.13 69.1438 86.3941C69.1911 87.3684 69.8402 88.171 70.714 88.4597Z" fill="#FF49B6"/>
<g id="Group 161">
<path id="Rectangle 20" d="M60.2231 93.7021L75.886 92.0468C76.231 95.3111 73.8644 98.237 70.6001 98.582L66.7583 98.988C63.494 99.333 60.5681 96.9664 60.2231 93.7021Z" fill="#FF49B6"/>
<g id="Mask group_2">
<mask id="mask1_2_354" style="mask-type:alpha" maskUnits="userSpaceOnUse" x="60" y="92" width="16" height="8">
<path id="Rectangle 21" d="M60.2231 93.7021L75.886 92.0468C76.231 95.3111 73.8644 98.237 70.6001 98.582L66.7583 98.988C63.494 99.333 60.5681 96.9664 60.2231 93.7021Z" fill="#FF49B6"/>
</mask>
<g mask="url(#mask1_2_354)">
<ellipse id="Ellipse 46" cx="70.6003" cy="98.582" rx="6.24059" ry="4.16039" transform="rotate(-6.03306 70.6003 98.582)" fill="#FFC8D2"/>
</g>
</g>
</g>
</g>
</svg>
