<svg width="71" height="71" viewBox="0 0 71 71" fill="none" xmlns="http://www.w3.org/2000/svg">
<g id="Flower">
<mask id="path-1-inside-1_2_322" fill="white">
<path d="M50.4356 5.65478C52.0279 3.32502 55.601 5.38794 54.3795 7.93181C53.8913 8.94847 54.2184 10.1692 55.1495 10.8056C57.4793 12.3979 55.4164 15.971 52.8725 14.7495C51.8558 14.2614 50.6351 14.5885 49.9987 15.5196C48.4064 17.8493 44.8333 15.7864 46.0548 13.2425C46.5429 12.2259 46.2158 11.0051 45.2847 10.3687C42.955 8.77642 45.0179 5.20334 47.5618 6.42482C48.5784 6.91298 49.7992 6.58587 50.4356 5.65478Z"/>
<path d="M48.0374 11.1715C47.7148 9.96751 48.4293 8.72994 49.6333 8.40732C50.8373 8.08471 52.0749 8.79922 52.3975 10.0032C52.7201 11.2072 52.0056 12.4448 50.8016 12.7674C49.5976 13.09 48.36 12.3755 48.0374 11.1715Z"/>
<path d="M63.2819 17.1642C65.8257 15.9427 67.8886 19.5158 65.5589 21.1081C64.6278 21.7445 64.3007 22.9653 64.7889 23.9819C66.0103 26.5258 62.4372 28.5887 60.8449 26.2589C60.2086 25.3279 58.9878 25.0007 57.9711 25.4889C55.4273 26.7104 53.3643 23.1373 55.6941 21.545C56.6252 20.9086 56.9523 19.6878 56.4641 18.6712C55.2427 16.1273 58.8157 14.0644 60.4081 16.3942C61.0444 17.3253 62.2652 17.6524 63.2819 17.1642Z"/>
<path d="M58.4466 20.7427C58.7692 19.5387 60.0068 18.8242 61.2108 19.1468C62.4148 19.4694 63.1293 20.707 62.8067 21.911C62.4841 23.115 61.2465 23.8296 60.0425 23.5069C58.8385 23.1843 58.124 21.9468 58.4466 20.7427Z"/>
<path d="M68.6524 33.5545C71.4662 33.7686 71.4662 37.8945 68.6524 38.1086C67.5278 38.1942 66.6342 39.0878 66.5486 40.2124C66.3345 43.0262 62.2087 43.0262 61.9946 40.2124C61.909 39.0878 61.0153 38.1942 59.8908 38.1086C57.077 37.8945 57.077 33.7686 59.8908 33.5545C61.0153 33.469 61.909 32.5753 61.9946 31.4508C62.2087 28.637 66.3345 28.637 66.5486 31.4508C66.6342 32.5753 67.5278 33.469 68.6524 33.5545Z"/>
<path d="M62.6757 34.236C63.5571 33.3546 64.9861 33.3546 65.8675 34.236C66.7489 35.1174 66.7489 36.5465 65.8675 37.4279C64.9861 38.3093 63.5571 38.3093 62.6757 37.4279C61.7943 36.5465 61.7943 35.1174 62.6757 34.236Z"/>
<path d="M65.1076 50.4341C67.4373 52.0264 65.3744 55.5995 62.8305 54.378C61.8139 53.8898 60.5931 54.217 59.9567 55.148C58.3644 57.4778 54.7913 55.4149 56.0128 52.871C56.501 51.8544 56.1739 50.6336 55.2428 49.9972C52.913 48.4049 54.9759 44.8318 57.5198 46.0533C58.5365 46.5415 59.7572 46.2143 60.3936 45.2833C61.9859 42.9535 65.559 45.0164 64.3375 47.5603C63.8494 48.5769 64.1765 49.7977 65.1076 50.4341Z"/>
<path d="M59.5908 48.0359C60.7948 47.7133 62.0324 48.4278 62.355 49.6318C62.6776 50.8358 61.9631 52.0734 60.7591 52.396C59.5551 52.7187 58.3175 52.0041 57.9949 50.8001C57.6723 49.5961 58.3868 48.3585 59.5908 48.0359Z"/>
<path d="M53.5975 63.2799C54.819 65.8238 51.2459 67.8867 49.6536 65.557C49.0172 64.6259 47.7965 64.2988 46.7798 64.7869C44.236 66.0084 42.173 62.4353 44.5028 60.843C45.4339 60.2066 45.761 58.9859 45.2728 57.9692C44.0513 55.4253 47.6244 53.3624 49.2167 55.6922C49.8531 56.6233 51.0739 56.9504 52.0905 56.4622C54.6344 55.2407 56.6973 58.8138 54.3676 60.4061C53.4365 61.0425 53.1094 62.2633 53.5975 63.2799Z"/>
<path d="M50.019 58.4447C51.223 58.7673 51.9375 60.0049 51.6149 61.2089C51.2923 62.4129 50.0547 63.1274 48.8507 62.8048C47.6467 62.4822 46.9322 61.2446 47.2548 60.0406C47.5774 58.8366 48.815 58.1221 50.019 58.4447Z"/>
<path d="M37.2073 68.6501C36.9932 71.4639 32.8674 71.4639 32.6532 68.6501C32.5677 67.5255 31.674 66.6319 30.5495 66.5463C27.7357 66.3322 27.7357 62.2064 30.5495 61.9923C31.674 61.9067 32.5677 61.013 32.6532 59.8885C32.8674 57.0747 36.9932 57.0747 37.2073 59.8885C37.2929 61.013 38.1865 61.9067 39.3111 61.9923C42.1249 62.2064 42.1249 66.3322 39.3111 66.5463C38.1865 66.6319 37.2929 67.5255 37.2073 68.6501Z"/>
<path d="M36.5258 62.6734C37.4072 63.5548 37.4072 64.9838 36.5258 65.8652C35.6444 66.7466 34.2154 66.7466 33.334 65.8652C32.4526 64.9838 32.4526 63.5548 33.334 62.6734C34.2154 61.792 35.6444 61.792 36.5258 62.6734Z"/>
<path d="M20.3277 65.1056C18.7353 67.4354 15.1622 65.3725 16.3837 62.8286C16.8719 61.812 16.5448 60.5912 15.6137 59.9548C13.2839 58.3625 15.3469 54.7894 17.8907 56.0109C18.9074 56.4991 20.1281 56.1719 20.7645 55.2409C22.3568 52.9111 25.9299 54.974 24.7084 57.5179C24.2203 58.5345 24.5474 59.7553 25.4785 60.3917C27.8082 61.984 25.7453 65.5571 23.2014 64.3356C22.1848 63.8474 20.964 64.1745 20.3277 65.1056Z"/>
<path d="M22.7258 59.5889C23.0484 60.7929 22.3339 62.0305 21.1299 62.3531C19.9259 62.6757 18.6883 61.9612 18.3657 60.7572C18.0431 59.5532 18.7576 58.3156 19.9616 57.993C21.1656 57.6704 22.4032 58.3849 22.7258 59.5889Z"/>
<path d="M7.48135 53.5963C4.93748 54.8178 2.87457 51.2447 5.20433 49.6524C6.13542 49.016 6.46252 47.7952 5.97436 46.7786C4.75288 44.2347 8.32597 42.1718 9.91829 44.5015C10.5547 45.4326 11.7754 45.7597 12.7921 45.2716C15.336 44.0501 17.3989 47.6232 15.0691 49.2155C14.138 49.8519 13.8109 51.0726 14.2991 52.0893C15.5206 54.6332 11.9475 56.6961 10.3552 54.3663C9.71878 53.4352 8.49801 53.1081 7.48135 53.5963Z"/>
<path d="M12.3166 50.0177C11.994 51.2217 10.7564 51.9363 9.55239 51.6136C8.34838 51.291 7.63386 50.0535 7.95648 48.8494C8.27909 47.6454 9.51667 46.9309 10.7207 47.2535C11.9247 47.5761 12.6392 48.8137 12.3166 50.0177Z"/>
<path d="M2.11083 37.2059C-0.702961 36.9918 -0.702959 32.866 2.11084 32.6519C3.23537 32.5663 4.12903 31.6726 4.2146 30.5481C4.4287 27.7343 8.55455 27.7343 8.76865 30.5481C8.85422 31.6726 9.74789 32.5663 10.8724 32.6519C13.6862 32.866 13.6862 36.9918 10.8724 37.2059C9.74788 37.2915 8.85422 38.1852 8.76865 39.3097C8.55455 42.1235 4.4287 42.1235 4.2146 39.3097C4.12903 38.1852 3.23536 37.2915 2.11083 37.2059Z"/>
<path d="M8.08755 36.5244C7.20615 37.4058 5.77712 37.4058 4.89572 36.5244C4.01433 35.643 4.01433 34.214 4.89572 33.3326C5.77712 32.4512 7.20615 32.4512 8.08755 33.3326C8.96894 34.214 8.96894 35.643 8.08755 36.5244Z"/>
<path d="M5.65566 20.3264C3.32589 18.7341 5.38882 15.161 7.93269 16.3825C8.94934 16.8706 10.1701 16.5435 10.8065 15.6124C12.3988 13.2827 15.9719 15.3456 14.7504 17.8895C14.2622 18.9061 14.5893 20.1269 15.5204 20.7633C17.8502 22.3556 15.7873 25.9287 13.2434 24.7072C12.2268 24.219 11.006 24.5461 10.3696 25.4772C8.7773 27.807 5.20421 25.7441 6.42569 23.2002C6.91385 22.1835 6.58675 20.9628 5.65566 20.3264Z"/>
<path d="M11.1724 22.7245C9.96838 23.0472 8.73081 22.3326 8.4082 21.1286C8.08558 19.9246 8.8001 18.687 10.0041 18.3644C11.2081 18.0418 12.4457 18.7563 12.7683 19.9603C13.0909 21.1644 12.3764 22.4019 11.1724 22.7245Z"/>
<path d="M17.1657 7.48048C15.9442 4.93661 19.5173 2.87369 21.1096 5.20346C21.746 6.13454 22.9667 6.46165 23.9834 5.97349C26.5273 4.75201 28.5902 8.3251 26.2604 9.91741C25.3293 10.5538 25.0022 11.7746 25.4904 12.7912C26.7119 15.3351 23.1388 17.398 21.5465 15.0682C20.9101 14.1371 19.6893 13.81 18.6727 14.2982C16.1288 15.5197 14.0659 11.9466 16.3956 10.3543C17.3267 9.71791 17.6538 8.49714 17.1657 7.48048Z"/>
<path d="M20.7442 12.3157C19.5402 11.9931 18.8257 10.7555 19.1483 9.55151C19.4709 8.3475 20.7085 7.63299 21.9125 7.9556C23.1165 8.27822 23.831 9.51579 23.5084 10.7198C23.1858 11.9238 21.9482 12.6383 20.7442 12.3157Z"/>
<path d="M33.5559 2.11035C33.77 -0.70345 37.8959 -0.703448 38.11 2.11035C38.1955 3.23488 39.0892 4.12854 40.2137 4.21411C43.0275 4.42822 43.0275 8.55406 40.2137 8.76816C39.0892 8.85373 38.1955 9.7474 38.11 10.8719C37.8959 13.6857 33.77 13.6857 33.5559 10.8719C33.4703 9.7474 32.5767 8.85373 31.4521 8.76816C28.6383 8.55406 28.6384 4.42821 31.4521 4.21411C32.5767 4.12854 33.4703 3.23487 33.5559 2.11035Z"/>
<path d="M34.2374 8.08706C33.356 7.20566 33.356 5.77663 34.2374 4.89524C35.1188 4.01384 36.5478 4.01384 37.4292 4.89524C38.3106 5.77663 38.3106 7.20566 37.4292 8.08706C36.5478 8.96846 35.1188 8.96846 34.2374 8.08706Z"/>
<path d="M27.6495 15.3374C27.1281 12.5641 31.1133 11.4962 32.0484 14.1587C32.4221 15.2228 33.5166 15.8547 34.625 15.6463C37.3983 15.1249 38.4662 19.1101 35.8037 20.0452C34.7396 20.4189 34.1077 21.5134 34.3161 22.6218C34.8375 25.3951 30.8523 26.4629 29.9172 23.8004C29.5435 22.7364 28.449 22.1045 27.3406 22.3129C24.5673 22.8343 23.4994 18.8491 26.162 17.914C27.226 17.5403 27.8579 16.4458 27.6495 15.3374Z"/>
<path d="M29.8547 20.9341C28.7752 20.3108 28.4054 18.9305 29.0286 17.851C29.6518 16.7715 31.0322 16.4017 32.1117 17.0249C33.1912 17.6482 33.561 19.0285 32.9378 20.108C32.3145 21.1875 30.9342 21.5573 29.8547 20.9341Z"/>
<path d="M19.0731 23.9139C18.5516 21.1405 22.5369 20.0727 23.472 22.7352C23.8457 23.7993 24.9402 24.4312 26.0485 24.2228C28.8219 23.7013 29.8897 27.6866 27.2272 28.6216C26.1631 28.9953 25.5312 30.0899 25.7396 31.1982C26.2611 33.9716 22.2758 35.0394 21.3407 32.3769C20.967 31.3128 19.8725 30.6809 18.7642 30.8893C15.9908 31.4108 14.923 27.4255 17.5855 26.4904C18.6496 26.1167 19.2815 25.0222 19.0731 23.9139Z"/>
<path d="M21.2783 29.5105C20.1988 28.8873 19.8289 27.507 20.4522 26.4275C21.0754 25.348 22.4557 24.9781 23.5352 25.6014C24.6147 26.2246 24.9846 27.6049 24.3613 28.6844C23.7381 29.7639 22.3577 30.1338 21.2783 29.5105Z"/>
<path d="M15.9133 35.6501C15.3919 32.8767 19.3771 31.8089 20.3122 34.4714C20.6859 35.5354 21.7804 36.1674 22.8888 35.959C25.6621 35.4375 26.73 39.4228 24.0675 40.3578C23.0034 40.7315 22.3715 41.8261 22.5799 42.9344C23.1013 45.7078 19.1161 46.7756 18.181 44.1131C17.8073 43.049 16.7128 42.4171 15.6044 42.6255C12.8311 43.147 11.7633 39.1617 14.4258 38.2266C15.4898 37.8529 16.1217 36.7584 15.9133 35.6501Z"/>
<path d="M18.1185 41.2467C17.039 40.6235 16.6692 39.2432 17.2924 38.1637C17.9156 37.0842 19.296 36.7143 20.3755 37.3376C21.455 37.9608 21.8248 39.3411 21.2016 40.4206C20.5783 41.5001 19.198 41.87 18.1185 41.2467Z"/>
<path d="M24.9412 44.6779C24.4197 41.9046 28.405 40.8368 29.3401 43.4993C29.7138 44.5633 30.8083 45.1952 31.9166 44.9868C34.69 44.4654 35.7578 48.4506 33.0953 49.3857C32.0312 49.7594 31.3993 50.8539 31.6077 51.9623C32.1292 54.7356 28.1439 55.8035 27.2088 53.141C26.8351 52.0769 25.7406 51.445 24.6323 51.6534C21.8589 52.1748 20.7911 48.1896 23.4536 47.2545C24.5177 46.8808 25.1496 45.7863 24.9412 44.6779Z"/>
<path d="M27.1464 50.2746C26.0669 49.6514 25.697 48.271 26.3202 47.1915C26.9435 46.112 28.3238 45.7422 29.4033 46.3654C30.4828 46.9887 30.8527 48.369 30.2294 49.4485C29.6062 50.528 28.2258 50.8978 27.1464 50.2746Z"/>
<path d="M36.6774 48.289C36.1559 45.5157 40.1412 44.4479 41.0763 47.1104C41.45 48.1744 42.5445 48.8063 43.6528 48.5979C46.4262 48.0765 47.494 52.0618 44.8315 52.9968C43.7674 53.3705 43.1355 54.465 43.3439 55.5734C43.8654 58.3467 39.8801 59.4146 38.945 56.7521C38.5713 55.688 37.4768 55.0561 36.3685 55.2645C33.5951 55.7859 32.5273 51.8007 35.1898 50.8656C36.2539 50.4919 36.8858 49.3974 36.6774 48.289Z"/>
<path d="M38.8825 53.8857C37.8031 53.2625 37.4332 51.8821 38.0564 50.8026C38.6797 49.7232 40.06 49.3533 41.1395 49.9765C42.219 50.5998 42.5889 51.9801 41.9656 53.0596C41.3424 54.1391 39.962 54.509 38.8825 53.8857Z"/>
<path d="M46.1566 39.7126C45.6352 36.9393 49.6204 35.8714 50.5555 38.5339C50.9292 39.598 52.0237 40.2299 53.1321 40.0215C55.9054 39.5 56.9732 43.4853 54.3107 44.4204C53.2467 44.7941 52.6148 45.8886 52.8232 46.997C53.3446 49.7703 49.3593 50.8381 48.4243 48.1756C48.0506 47.1116 46.9561 46.4796 45.8477 46.688C43.0744 47.2095 42.0065 43.2242 44.669 42.2892C45.7331 41.9155 46.365 40.8209 46.1566 39.7126Z"/>
<path d="M48.3618 45.3093C47.2823 44.686 46.9124 43.3057 47.5357 42.2262C48.1589 41.1467 49.5393 40.7769 50.6187 41.4001C51.6982 42.0233 52.0681 43.4037 51.4448 44.4832C50.8216 45.5626 49.4413 45.9325 48.3618 45.3093Z"/>
<path d="M48.865 27.9764C48.3435 25.2031 52.3288 24.1352 53.2638 26.7977C53.6375 27.8618 54.7321 28.4937 55.8404 28.2853C58.6138 27.7638 59.6816 31.7491 57.0191 32.6842C55.955 33.0579 55.3231 34.1524 55.5315 35.2608C56.053 38.0341 52.0677 39.1019 51.1326 36.4394C50.7589 35.3754 49.6644 34.7434 48.5561 34.9518C45.7827 35.4733 44.7149 31.488 47.3774 30.553C48.4414 30.1793 49.0734 29.0847 48.865 27.9764Z"/>
<path d="M51.0701 33.5731C49.9906 32.9498 49.6208 31.5695 50.244 30.49C50.8673 29.4105 52.2476 29.0407 53.3271 29.6639C54.4066 30.2871 54.7764 31.6675 54.1532 32.747C53.53 33.8265 52.1496 34.1963 51.0701 33.5731Z"/>
<path d="M40.2885 17.5944C39.7671 14.821 43.7523 13.7532 44.6874 16.4157C45.0611 17.4798 46.1556 18.1117 47.264 17.9033C50.0373 17.3818 51.1051 21.3671 48.4426 22.3022C47.3786 22.6759 46.7467 23.7704 46.9551 24.8787C47.4765 27.6521 43.4913 28.7199 42.5562 26.0574C42.1825 24.9933 41.088 24.3614 39.9796 24.5698C37.2063 25.0913 36.1384 21.106 38.8009 20.1709C39.865 19.7972 40.4969 18.7027 40.2885 17.5944Z"/>
<path d="M42.4937 23.191C41.4142 22.5678 41.0443 21.1875 41.6676 20.108C42.2908 19.0285 43.6712 18.6586 44.7506 19.2819C45.8301 19.9051 46.2 21.2855 45.5767 22.3649C44.9535 23.4444 43.5732 23.8143 42.4937 23.191Z"/>
<path d="M34.0073 30.0967C34.2214 27.2829 38.3472 27.2829 38.5614 30.0967C38.6469 31.2212 39.5406 32.1149 40.6651 32.2004C43.4789 32.4145 43.4789 36.5404 40.6651 36.7545C39.5406 36.84 38.6469 37.7337 38.5614 38.8582C38.3472 41.672 34.2214 41.672 34.0073 38.8582C33.9217 37.7337 33.0281 36.84 31.9035 36.7545C29.0897 36.5404 29.0897 32.4145 31.9035 32.2004C33.0281 32.1149 33.9217 31.2212 34.0073 30.0967Z"/>
<path d="M34.6888 36.0734C33.8074 35.192 33.8074 33.7629 34.6888 32.8815C35.5702 32.0001 36.9992 32.0001 37.8806 32.8815C38.762 33.7629 38.762 35.192 37.8806 36.0734C36.9992 36.9548 35.5702 36.9548 34.6888 36.0734Z"/>
</mask>
<path d="M50.4356 5.65478C52.0279 3.32502 55.601 5.38794 54.3795 7.93181C53.8913 8.94847 54.2184 10.1692 55.1495 10.8056C57.4793 12.3979 55.4164 15.971 52.8725 14.7495C51.8558 14.2614 50.6351 14.5885 49.9987 15.5196C48.4064 17.8493 44.8333 15.7864 46.0548 13.2425C46.5429 12.2259 46.2158 11.0051 45.2847 10.3687C42.955 8.77642 45.0179 5.20334 47.5618 6.42482C48.5784 6.91298 49.7992 6.58587 50.4356 5.65478Z" fill="#EC6973"/>
<path d="M48.0374 11.1715C47.7148 9.96751 48.4293 8.72994 49.6333 8.40732C50.8373 8.08471 52.0749 8.79922 52.3975 10.0032C52.7201 11.2072 52.0056 12.4448 50.8016 12.7674C49.5976 13.09 48.36 12.3755 48.0374 11.1715Z" fill="#F4B542"/>
<path d="M63.2819 17.1642C65.8257 15.9427 67.8886 19.5158 65.5589 21.1081C64.6278 21.7445 64.3007 22.9653 64.7889 23.9819C66.0103 26.5258 62.4372 28.5887 60.8449 26.2589C60.2086 25.3279 58.9878 25.0007 57.9711 25.4889C55.4273 26.7104 53.3643 23.1373 55.6941 21.545C56.6252 20.9086 56.9523 19.6878 56.4641 18.6712C55.2427 16.1273 58.8157 14.0644 60.4081 16.3942C61.0444 17.3253 62.2652 17.6524 63.2819 17.1642Z" fill="#EC6973"/>
<path d="M58.4466 20.7427C58.7692 19.5387 60.0068 18.8242 61.2108 19.1468C62.4148 19.4694 63.1293 20.707 62.8067 21.911C62.4841 23.115 61.2465 23.8296 60.0425 23.5069C58.8385 23.1843 58.124 21.9468 58.4466 20.7427Z" fill="#F4B542"/>
<path d="M68.6524 33.5545C71.4662 33.7686 71.4662 37.8945 68.6524 38.1086C67.5278 38.1942 66.6342 39.0878 66.5486 40.2124C66.3345 43.0262 62.2087 43.0262 61.9946 40.2124C61.909 39.0878 61.0153 38.1942 59.8908 38.1086C57.077 37.8945 57.077 33.7686 59.8908 33.5545C61.0153 33.469 61.909 32.5753 61.9946 31.4508C62.2087 28.637 66.3345 28.637 66.5486 31.4508C66.6342 32.5753 67.5278 33.469 68.6524 33.5545Z" fill="#EC6973"/>
<path d="M62.6757 34.236C63.5571 33.3546 64.9861 33.3546 65.8675 34.236C66.7489 35.1174 66.7489 36.5465 65.8675 37.4279C64.9861 38.3093 63.5571 38.3093 62.6757 37.4279C61.7943 36.5465 61.7943 35.1174 62.6757 34.236Z" fill="#F4B542"/>
<path d="M65.1076 50.4341C67.4373 52.0264 65.3744 55.5995 62.8305 54.378C61.8139 53.8898 60.5931 54.217 59.9567 55.148C58.3644 57.4778 54.7913 55.4149 56.0128 52.871C56.501 51.8544 56.1739 50.6336 55.2428 49.9972C52.913 48.4049 54.9759 44.8318 57.5198 46.0533C58.5365 46.5415 59.7572 46.2143 60.3936 45.2833C61.9859 42.9535 65.559 45.0164 64.3375 47.5603C63.8494 48.5769 64.1765 49.7977 65.1076 50.4341Z" fill="#EC6973"/>
<path d="M59.5908 48.0359C60.7948 47.7133 62.0324 48.4278 62.355 49.6318C62.6776 50.8358 61.9631 52.0734 60.7591 52.396C59.5551 52.7187 58.3175 52.0041 57.9949 50.8001C57.6723 49.5961 58.3868 48.3585 59.5908 48.0359Z" fill="#F4B542"/>
<path d="M53.5975 63.2799C54.819 65.8238 51.2459 67.8867 49.6536 65.557C49.0172 64.6259 47.7965 64.2988 46.7798 64.7869C44.236 66.0084 42.173 62.4353 44.5028 60.843C45.4339 60.2066 45.761 58.9859 45.2728 57.9692C44.0513 55.4253 47.6244 53.3624 49.2167 55.6922C49.8531 56.6233 51.0739 56.9504 52.0905 56.4622C54.6344 55.2407 56.6973 58.8138 54.3676 60.4061C53.4365 61.0425 53.1094 62.2633 53.5975 63.2799Z" fill="#EC6973"/>
<path d="M50.019 58.4447C51.223 58.7673 51.9375 60.0049 51.6149 61.2089C51.2923 62.4129 50.0547 63.1274 48.8507 62.8048C47.6467 62.4822 46.9322 61.2446 47.2548 60.0406C47.5774 58.8366 48.815 58.1221 50.019 58.4447Z" fill="#F4B542"/>
<path d="M37.2073 68.6501C36.9932 71.4639 32.8674 71.4639 32.6532 68.6501C32.5677 67.5255 31.674 66.6319 30.5495 66.5463C27.7357 66.3322 27.7357 62.2064 30.5495 61.9923C31.674 61.9067 32.5677 61.013 32.6532 59.8885C32.8674 57.0747 36.9932 57.0747 37.2073 59.8885C37.2929 61.013 38.1865 61.9067 39.3111 61.9923C42.1249 62.2064 42.1249 66.3322 39.3111 66.5463C38.1865 66.6319 37.2929 67.5255 37.2073 68.6501Z" fill="#EC6973"/>
<path d="M36.5258 62.6734C37.4072 63.5548 37.4072 64.9838 36.5258 65.8652C35.6444 66.7466 34.2154 66.7466 33.334 65.8652C32.4526 64.9838 32.4526 63.5548 33.334 62.6734C34.2154 61.792 35.6444 61.792 36.5258 62.6734Z" fill="#F4B542"/>
<path d="M20.3277 65.1056C18.7353 67.4354 15.1622 65.3725 16.3837 62.8286C16.8719 61.812 16.5448 60.5912 15.6137 59.9548C13.2839 58.3625 15.3469 54.7894 17.8907 56.0109C18.9074 56.4991 20.1281 56.1719 20.7645 55.2409C22.3568 52.9111 25.9299 54.974 24.7084 57.5179C24.2203 58.5345 24.5474 59.7553 25.4785 60.3917C27.8082 61.984 25.7453 65.5571 23.2014 64.3356C22.1848 63.8474 20.964 64.1745 20.3277 65.1056Z" fill="#EC6973"/>
<path d="M22.7258 59.5889C23.0484 60.7929 22.3339 62.0305 21.1299 62.3531C19.9259 62.6757 18.6883 61.9612 18.3657 60.7572C18.0431 59.5532 18.7576 58.3156 19.9616 57.993C21.1656 57.6704 22.4032 58.3849 22.7258 59.5889Z" fill="#F4B542"/>
<path d="M7.48135 53.5963C4.93748 54.8178 2.87457 51.2447 5.20433 49.6524C6.13542 49.016 6.46252 47.7952 5.97436 46.7786C4.75288 44.2347 8.32597 42.1718 9.91829 44.5015C10.5547 45.4326 11.7754 45.7597 12.7921 45.2716C15.336 44.0501 17.3989 47.6232 15.0691 49.2155C14.138 49.8519 13.8109 51.0726 14.2991 52.0893C15.5206 54.6332 11.9475 56.6961 10.3552 54.3663C9.71878 53.4352 8.49801 53.1081 7.48135 53.5963Z" fill="#EC6973"/>
<path d="M12.3166 50.0177C11.994 51.2217 10.7564 51.9363 9.55239 51.6136C8.34838 51.291 7.63386 50.0535 7.95648 48.8494C8.27909 47.6454 9.51667 46.9309 10.7207 47.2535C11.9247 47.5761 12.6392 48.8137 12.3166 50.0177Z" fill="#F4B542"/>
<path d="M2.11083 37.2059C-0.702961 36.9918 -0.702959 32.866 2.11084 32.6519C3.23537 32.5663 4.12903 31.6726 4.2146 30.5481C4.4287 27.7343 8.55455 27.7343 8.76865 30.5481C8.85422 31.6726 9.74789 32.5663 10.8724 32.6519C13.6862 32.866 13.6862 36.9918 10.8724 37.2059C9.74788 37.2915 8.85422 38.1852 8.76865 39.3097C8.55455 42.1235 4.4287 42.1235 4.2146 39.3097C4.12903 38.1852 3.23536 37.2915 2.11083 37.2059Z" fill="#EC6973"/>
<path d="M8.08755 36.5244C7.20615 37.4058 5.77712 37.4058 4.89572 36.5244C4.01433 35.643 4.01433 34.214 4.89572 33.3326C5.77712 32.4512 7.20615 32.4512 8.08755 33.3326C8.96894 34.214 8.96894 35.643 8.08755 36.5244Z" fill="#F4B542"/>
<path d="M5.65566 20.3264C3.32589 18.7341 5.38882 15.161 7.93269 16.3825C8.94934 16.8706 10.1701 16.5435 10.8065 15.6124C12.3988 13.2827 15.9719 15.3456 14.7504 17.8895C14.2622 18.9061 14.5893 20.1269 15.5204 20.7633C17.8502 22.3556 15.7873 25.9287 13.2434 24.7072C12.2268 24.219 11.006 24.5461 10.3696 25.4772C8.7773 27.807 5.20421 25.7441 6.42569 23.2002C6.91385 22.1835 6.58675 20.9628 5.65566 20.3264Z" fill="#EC6973"/>
<path d="M11.1724 22.7245C9.96838 23.0472 8.73081 22.3326 8.4082 21.1286C8.08558 19.9246 8.8001 18.687 10.0041 18.3644C11.2081 18.0418 12.4457 18.7563 12.7683 19.9603C13.0909 21.1644 12.3764 22.4019 11.1724 22.7245Z" fill="#F4B542"/>
<path d="M17.1657 7.48048C15.9442 4.93661 19.5173 2.87369 21.1096 5.20346C21.746 6.13454 22.9667 6.46165 23.9834 5.97349C26.5273 4.75201 28.5902 8.3251 26.2604 9.91741C25.3293 10.5538 25.0022 11.7746 25.4904 12.7912C26.7119 15.3351 23.1388 17.398 21.5465 15.0682C20.9101 14.1371 19.6893 13.81 18.6727 14.2982C16.1288 15.5197 14.0659 11.9466 16.3956 10.3543C17.3267 9.71791 17.6538 8.49714 17.1657 7.48048Z" fill="#EC6973"/>
<path d="M20.7442 12.3157C19.5402 11.9931 18.8257 10.7555 19.1483 9.55151C19.4709 8.3475 20.7085 7.63299 21.9125 7.9556C23.1165 8.27822 23.831 9.51579 23.5084 10.7198C23.1858 11.9238 21.9482 12.6383 20.7442 12.3157Z" fill="#F4B542"/>
<path d="M33.5559 2.11035C33.77 -0.70345 37.8959 -0.703448 38.11 2.11035C38.1955 3.23488 39.0892 4.12854 40.2137 4.21411C43.0275 4.42822 43.0275 8.55406 40.2137 8.76816C39.0892 8.85373 38.1955 9.7474 38.11 10.8719C37.8959 13.6857 33.77 13.6857 33.5559 10.8719C33.4703 9.7474 32.5767 8.85373 31.4521 8.76816C28.6383 8.55406 28.6384 4.42821 31.4521 4.21411C32.5767 4.12854 33.4703 3.23487 33.5559 2.11035Z" fill="#EC6973"/>
<path d="M34.2374 8.08706C33.356 7.20566 33.356 5.77663 34.2374 4.89524C35.1188 4.01384 36.5478 4.01384 37.4292 4.89524C38.3106 5.77663 38.3106 7.20566 37.4292 8.08706C36.5478 8.96846 35.1188 8.96846 34.2374 8.08706Z" fill="#F4B542"/>
<path d="M27.6495 15.3374C27.1281 12.5641 31.1133 11.4962 32.0484 14.1587C32.4221 15.2228 33.5166 15.8547 34.625 15.6463C37.3983 15.1249 38.4662 19.1101 35.8037 20.0452C34.7396 20.4189 34.1077 21.5134 34.3161 22.6218C34.8375 25.3951 30.8523 26.4629 29.9172 23.8004C29.5435 22.7364 28.449 22.1045 27.3406 22.3129C24.5673 22.8343 23.4994 18.8491 26.162 17.914C27.226 17.5403 27.8579 16.4458 27.6495 15.3374Z" fill="#EC6973"/>
<path d="M29.8547 20.9341C28.7752 20.3108 28.4054 18.9305 29.0286 17.851C29.6518 16.7715 31.0322 16.4017 32.1117 17.0249C33.1912 17.6482 33.561 19.0285 32.9378 20.108C32.3145 21.1875 30.9342 21.5573 29.8547 20.9341Z" fill="#F4B542"/>
<path d="M19.0731 23.9139C18.5516 21.1405 22.5369 20.0727 23.472 22.7352C23.8457 23.7993 24.9402 24.4312 26.0485 24.2228C28.8219 23.7013 29.8897 27.6866 27.2272 28.6216C26.1631 28.9953 25.5312 30.0899 25.7396 31.1982C26.2611 33.9716 22.2758 35.0394 21.3407 32.3769C20.967 31.3128 19.8725 30.6809 18.7642 30.8893C15.9908 31.4108 14.923 27.4255 17.5855 26.4904C18.6496 26.1167 19.2815 25.0222 19.0731 23.9139Z" fill="#EC6973"/>
<path d="M21.2783 29.5105C20.1988 28.8873 19.8289 27.507 20.4522 26.4275C21.0754 25.348 22.4557 24.9781 23.5352 25.6014C24.6147 26.2246 24.9846 27.6049 24.3613 28.6844C23.7381 29.7639 22.3577 30.1338 21.2783 29.5105Z" fill="#F4B542"/>
<path d="M15.9133 35.6501C15.3919 32.8767 19.3771 31.8089 20.3122 34.4714C20.6859 35.5354 21.7804 36.1674 22.8888 35.959C25.6621 35.4375 26.73 39.4228 24.0675 40.3578C23.0034 40.7315 22.3715 41.8261 22.5799 42.9344C23.1013 45.7078 19.1161 46.7756 18.181 44.1131C17.8073 43.049 16.7128 42.4171 15.6044 42.6255C12.8311 43.147 11.7633 39.1617 14.4258 38.2266C15.4898 37.8529 16.1217 36.7584 15.9133 35.6501Z" fill="#EC6973"/>
<path d="M18.1185 41.2467C17.039 40.6235 16.6692 39.2432 17.2924 38.1637C17.9156 37.0842 19.296 36.7143 20.3755 37.3376C21.455 37.9608 21.8248 39.3411 21.2016 40.4206C20.5783 41.5001 19.198 41.87 18.1185 41.2467Z" fill="#F4B542"/>
<path d="M24.9412 44.6779C24.4197 41.9046 28.405 40.8368 29.3401 43.4993C29.7138 44.5633 30.8083 45.1952 31.9166 44.9868C34.69 44.4654 35.7578 48.4506 33.0953 49.3857C32.0312 49.7594 31.3993 50.8539 31.6077 51.9623C32.1292 54.7356 28.1439 55.8035 27.2088 53.141C26.8351 52.0769 25.7406 51.445 24.6323 51.6534C21.8589 52.1748 20.7911 48.1896 23.4536 47.2545C24.5177 46.8808 25.1496 45.7863 24.9412 44.6779Z" fill="#EC6973"/>
<path d="M27.1464 50.2746C26.0669 49.6514 25.697 48.271 26.3202 47.1915C26.9435 46.112 28.3238 45.7422 29.4033 46.3654C30.4828 46.9887 30.8527 48.369 30.2294 49.4485C29.6062 50.528 28.2258 50.8978 27.1464 50.2746Z" fill="#F4B542"/>
<path d="M36.6774 48.289C36.1559 45.5157 40.1412 44.4479 41.0763 47.1104C41.45 48.1744 42.5445 48.8063 43.6528 48.5979C46.4262 48.0765 47.494 52.0618 44.8315 52.9968C43.7674 53.3705 43.1355 54.465 43.3439 55.5734C43.8654 58.3467 39.8801 59.4146 38.945 56.7521C38.5713 55.688 37.4768 55.0561 36.3685 55.2645C33.5951 55.7859 32.5273 51.8007 35.1898 50.8656C36.2539 50.4919 36.8858 49.3974 36.6774 48.289Z" fill="#EC6973"/>
<path d="M38.8825 53.8857C37.8031 53.2625 37.4332 51.8821 38.0564 50.8026C38.6797 49.7232 40.06 49.3533 41.1395 49.9765C42.219 50.5998 42.5889 51.9801 41.9656 53.0596C41.3424 54.1391 39.962 54.509 38.8825 53.8857Z" fill="#F4B542"/>
<path d="M46.1566 39.7126C45.6352 36.9393 49.6204 35.8714 50.5555 38.5339C50.9292 39.598 52.0237 40.2299 53.1321 40.0215C55.9054 39.5 56.9732 43.4853 54.3107 44.4204C53.2467 44.7941 52.6148 45.8886 52.8232 46.997C53.3446 49.7703 49.3593 50.8381 48.4243 48.1756C48.0506 47.1116 46.9561 46.4796 45.8477 46.688C43.0744 47.2095 42.0065 43.2242 44.669 42.2892C45.7331 41.9155 46.365 40.8209 46.1566 39.7126Z" fill="#EC6973"/>
<path d="M48.3618 45.3093C47.2823 44.686 46.9124 43.3057 47.5357 42.2262C48.1589 41.1467 49.5393 40.7769 50.6187 41.4001C51.6982 42.0233 52.0681 43.4037 51.4448 44.4832C50.8216 45.5626 49.4413 45.9325 48.3618 45.3093Z" fill="#F4B542"/>
<path d="M48.865 27.9764C48.3435 25.2031 52.3288 24.1352 53.2638 26.7977C53.6375 27.8618 54.7321 28.4937 55.8404 28.2853C58.6138 27.7638 59.6816 31.7491 57.0191 32.6842C55.955 33.0579 55.3231 34.1524 55.5315 35.2608C56.053 38.0341 52.0677 39.1019 51.1326 36.4394C50.7589 35.3754 49.6644 34.7434 48.5561 34.9518C45.7827 35.4733 44.7149 31.488 47.3774 30.553C48.4414 30.1793 49.0734 29.0847 48.865 27.9764Z" fill="#EC6973"/>
<path d="M51.0701 33.5731C49.9906 32.9498 49.6208 31.5695 50.244 30.49C50.8673 29.4105 52.2476 29.0407 53.3271 29.6639C54.4066 30.2871 54.7764 31.6675 54.1532 32.747C53.53 33.8265 52.1496 34.1963 51.0701 33.5731Z" fill="#F4B542"/>
<path d="M40.2885 17.5944C39.7671 14.821 43.7523 13.7532 44.6874 16.4157C45.0611 17.4798 46.1556 18.1117 47.264 17.9033C50.0373 17.3818 51.1051 21.3671 48.4426 22.3022C47.3786 22.6759 46.7467 23.7704 46.9551 24.8787C47.4765 27.6521 43.4913 28.7199 42.5562 26.0574C42.1825 24.9933 41.088 24.3614 39.9796 24.5698C37.2063 25.0913 36.1384 21.106 38.8009 20.1709C39.865 19.7972 40.4969 18.7027 40.2885 17.5944Z" fill="#EC6973"/>
<path d="M42.4937 23.191C41.4142 22.5678 41.0443 21.1875 41.6676 20.108C42.2908 19.0285 43.6712 18.6586 44.7506 19.2819C45.8301 19.9051 46.2 21.2855 45.5767 22.3649C44.9535 23.4444 43.5732 23.8143 42.4937 23.191Z" fill="#F4B542"/>
<path d="M34.0073 30.0967C34.2214 27.2829 38.3472 27.2829 38.5614 30.0967C38.6469 31.2212 39.5406 32.1149 40.6651 32.2004C43.4789 32.4145 43.4789 36.5404 40.6651 36.7545C39.5406 36.84 38.6469 37.7337 38.5614 38.8582C38.3472 41.672 34.2214 41.672 34.0073 38.8582C33.9217 37.7337 33.0281 36.84 31.9035 36.7545C29.0897 36.5404 29.0897 32.4145 31.9035 32.2004C33.0281 32.1149 33.9217 31.2212 34.0073 30.0967Z" fill="#EC6973"/>
<path d="M34.6888 36.0734C33.8074 35.192 33.8074 33.7629 34.6888 32.8815C35.5702 32.0001 36.9992 32.0001 37.8806 32.8815C38.762 33.7629 38.762 35.192 37.8806 36.0734C36.9992 36.9548 35.5702 36.9548 34.6888 36.0734Z" fill="#F4B542"/>
<path d="M60.2475 20.411L12.2373 48.1296L12.6887 48.9115L60.6988 21.1928L60.2475 20.411ZM64.1868 34.2098H8.74948V35.1126H64.1868V34.2098ZM60.6988 48.1297L12.6887 20.411L12.2373 21.1928L60.2475 48.9115L60.6988 48.1297ZM50.7184 58.4406L22.9997 10.4304L22.2179 10.8818L49.9366 58.892L50.7184 58.4406ZM36.9196 62.3799V6.94255H36.0168V62.3799H36.9196ZM22.9997 58.892L50.7184 10.8818L49.9366 10.4304L22.2179 58.4406L22.9997 58.892ZM47.5618 6.42482L47.9525 5.61099L47.5618 6.42482ZM50.4356 5.65478L51.1809 6.16419L50.4356 5.65478ZM45.2847 10.3687L45.7941 9.62341L45.2847 10.3687ZM46.0548 13.2425L45.2409 12.8518L46.0548 13.2425ZM49.9987 15.5196L49.2534 15.0102L49.9987 15.5196ZM52.8725 14.7495L52.4817 15.5634L52.8725 14.7495ZM55.1495 10.8056L54.6401 11.5509L55.1495 10.8056ZM54.3795 7.93181L55.1933 8.32259L54.3795 7.93181ZM60.4081 16.3942L59.6627 16.9036L60.4081 16.3942ZM63.2819 17.1642L63.6726 17.978L63.2819 17.1642ZM56.4641 18.6712L57.278 18.2804L56.4641 18.6712ZM55.6941 21.545L56.2035 22.2903L55.6941 21.545ZM57.9711 25.4889L57.5804 24.6751L57.9711 25.4889ZM60.8449 26.2589L61.5903 25.7495L60.8449 26.2589ZM64.7889 23.9819L63.975 24.3727L64.7889 23.9819ZM65.5589 21.1081L65.0495 20.3628L65.5589 21.1081ZM66.5486 31.4508L67.4488 31.3823L66.5486 31.4508ZM68.6524 33.5545L68.7209 32.6544L68.6524 33.5545ZM61.9946 31.4508L61.0944 31.3823L61.9946 31.4508ZM59.8908 33.5545L59.8223 32.6544L59.8908 33.5545ZM59.8908 38.1086L59.8223 39.0088L59.8908 38.1086ZM61.9946 40.2124L61.0944 40.2809L61.9946 40.2124ZM66.5486 40.2124L67.4488 40.2809L66.5486 40.2124ZM68.6524 38.1086L68.7209 39.0088L68.6524 38.1086ZM64.3375 47.5603L65.1514 47.9511L64.3375 47.5603ZM65.1076 50.4341L64.5981 51.1794L65.1076 50.4341ZM60.3936 45.2833L61.1389 45.7927L60.3936 45.2833ZM57.5198 46.0533L57.9106 45.2395L57.5198 46.0533ZM55.2428 49.9972L55.7522 49.2519L55.2428 49.9972ZM56.0128 52.871L55.199 52.4802L56.0128 52.871ZM59.9567 55.148L59.2114 54.6386L59.9567 55.148ZM62.8305 54.378L62.4398 55.1918L62.8305 54.378ZM54.3676 60.4061L53.8582 59.6608L54.3676 60.4061ZM53.5975 63.2799L52.7837 63.6707L53.5975 63.2799ZM52.0905 56.4622L52.4813 57.276L52.0905 56.4622ZM49.2167 55.6922L48.4714 56.2016L49.2167 55.6922ZM45.2728 57.9692L46.0867 57.5784L45.2728 57.9692ZM44.5028 60.843L45.0122 61.5883L44.5028 60.843ZM46.7798 64.7869L46.389 63.9731L46.7798 64.7869ZM49.6536 65.557L50.3989 65.0475L49.6536 65.557ZM39.3111 66.5463L39.3796 67.4465L39.3111 66.5463ZM37.2073 68.6501L38.1075 68.7186L37.2073 68.6501ZM39.3111 61.9923L39.3796 61.0921L39.3111 61.9923ZM37.2073 59.8885L38.1075 59.82L37.2073 59.8885ZM32.6532 59.8885L31.7531 59.82L32.6532 59.8885ZM30.5495 61.9923L30.481 61.0921L30.5495 61.9923ZM30.5495 66.5463L30.481 67.4465L30.5495 66.5463ZM32.6532 68.6501L31.7531 68.7186L32.6532 68.6501ZM23.2014 64.3356L22.8107 65.1494L23.2014 64.3356ZM20.3277 65.1056L19.5823 64.5962L20.3277 65.1056ZM25.4785 60.3917L24.9691 61.137L25.4785 60.3917ZM24.7084 57.5179L25.5223 57.9087L24.7084 57.5179ZM20.7645 55.2409L21.5098 55.7503L20.7645 55.2409ZM17.8907 56.0109L18.2815 55.1971L17.8907 56.0109ZM15.6137 59.9548L16.1231 59.2095L15.6137 59.9548ZM16.3837 62.8286L15.5699 62.4378L16.3837 62.8286ZM10.3552 54.3663L11.1005 53.8569L10.3552 54.3663ZM7.48135 53.5963L7.09058 52.7825L7.48135 53.5963ZM14.2991 52.0893L13.4852 52.4801L14.2991 52.0893ZM15.0691 49.2155L14.5597 48.4702L15.0691 49.2155ZM12.7921 45.2716L13.1829 46.0854L12.7921 45.2716ZM9.91829 44.5015L9.17295 45.0109L9.91829 44.5015ZM5.97436 46.7786L6.78819 46.3878L5.97436 46.7786ZM5.20433 49.6524L5.71374 50.3977L5.20433 49.6524ZM4.2146 39.3097L3.31442 39.3782L4.2146 39.3097ZM2.11083 37.2059L2.04234 38.1061L2.11083 37.2059ZM8.76865 39.3097L9.66883 39.3782L8.76865 39.3097ZM10.8724 37.2059L10.9409 38.1061L10.8724 37.2059ZM10.8724 32.6519L10.9409 31.7517L10.8724 32.6519ZM8.76865 30.5481L9.66883 30.4796L8.76865 30.5481ZM4.2146 30.5481L3.31442 30.4796L4.2146 30.5481ZM2.11084 32.6519L2.04234 31.7517L2.11084 32.6519ZM6.42569 23.2002L5.61186 22.8094L6.42569 23.2002ZM5.65566 20.3264L6.16507 19.5811L5.65566 20.3264ZM10.3696 25.4772L9.62428 24.9678H9.62428L10.3696 25.4772ZM13.2434 24.7072L12.8526 25.521L13.2434 24.7072ZM15.5204 20.7633L15.011 21.5086H15.011L15.5204 20.7633ZM14.7504 17.8895L15.5642 18.2802L14.7504 17.8895ZM10.8065 15.6124L11.5518 16.1218L10.8065 15.6124ZM7.93269 16.3825L8.32346 15.5686L7.93269 16.3825ZM16.3956 10.3543L16.9051 11.0996L16.3956 10.3543ZM17.1657 7.48048L17.9795 7.08971L17.1657 7.48048ZM18.6727 14.2982L18.2819 13.4844L18.6727 14.2982ZM21.5465 15.0682L22.2918 14.5588L21.5465 15.0682ZM25.4904 12.7912L24.6766 13.182L25.4904 12.7912ZM26.2604 9.91741L25.751 9.17208L26.2604 9.91741ZM23.9834 5.97349L24.3742 6.78731L23.9834 5.97349ZM21.1096 5.20346L20.3643 5.71287L21.1096 5.20346ZM31.4521 4.21411L31.3837 3.31393L31.4521 4.21411ZM33.5559 2.11035L32.6557 2.04185L33.5559 2.11035ZM31.4521 8.76816L31.3836 9.66834L31.4521 8.76816ZM33.5559 10.8719L32.6557 10.9404L33.5559 10.8719ZM38.11 10.8719L39.0101 10.9404L38.11 10.8719ZM40.2137 8.76816L40.2822 9.66835L40.2137 8.76816ZM40.2137 4.21411L40.2822 3.31393L40.2137 4.21411ZM38.11 2.11035L39.0101 2.04185L38.11 2.11035ZM26.162 17.914L25.8628 17.0622L26.162 17.914ZM27.6495 15.3374L28.5368 15.1706L27.6495 15.3374ZM27.3406 22.3129L27.1738 21.4256L27.3406 22.3129ZM29.9172 23.8004L29.0654 24.0996L29.9172 23.8004ZM34.3161 22.6218L33.4288 22.7886L34.3161 22.6218ZM35.8037 20.0452L36.1028 20.897L35.8037 20.0452ZM34.625 15.6463L34.7918 16.5336L34.625 15.6463ZM32.0484 14.1587L32.9002 13.8596L32.0484 14.1587ZM17.5855 26.4904L17.2864 25.6387L17.5855 26.4904ZM19.0731 23.9139L19.9603 23.747L19.0731 23.9139ZM18.7642 30.8893L18.5974 30.0021L18.7642 30.8893ZM21.3407 32.3769L20.489 32.676L21.3407 32.3769ZM25.7396 31.1982L24.8524 31.365L25.7396 31.1982ZM27.2272 28.6216L27.5264 29.4734L27.2272 28.6216ZM26.0485 24.2228L26.2154 25.11L26.0485 24.2228ZM23.472 22.7352L24.3237 22.436L23.472 22.7352ZM14.4258 38.2266L14.1266 37.3749L14.4258 38.2266ZM15.9133 35.6501L16.8006 35.4832L15.9133 35.6501ZM15.6044 42.6255L15.4376 41.7383L15.6044 42.6255ZM18.181 44.1131L17.3292 44.4122L18.181 44.1131ZM22.5799 42.9344L21.6926 43.1012L22.5799 42.9344ZM24.0675 40.3578L24.3666 41.2096L24.0675 40.3578ZM22.8888 35.959L23.0556 36.8462L22.8888 35.959ZM20.3122 34.4714L21.164 34.1722L20.3122 34.4714ZM23.4536 47.2545L23.1545 46.4027L23.4536 47.2545ZM24.9412 44.6779L25.8284 44.5111L24.9412 44.6779ZM24.6323 51.6534L24.4655 50.7661L24.6323 51.6534ZM27.2088 53.141L26.3571 53.4401L27.2088 53.141ZM31.6077 51.9623L30.7205 52.1291L31.6077 51.9623ZM33.0953 49.3857L33.3945 50.2375L33.0953 49.3857ZM31.9166 44.9868L32.0835 45.8741L31.9166 44.9868ZM29.3401 43.4993L30.1918 43.2001L29.3401 43.4993ZM35.1898 50.8656L34.8906 50.0138L35.1898 50.8656ZM36.6774 48.289L37.5646 48.1222L36.6774 48.289ZM36.3685 55.2645L36.2016 54.3773L36.3685 55.2645ZM38.945 56.7521L38.0933 57.0512L38.945 56.7521ZM43.3439 55.5734L42.4567 55.7402L43.3439 55.5734ZM44.8315 52.9968L45.1307 53.8486L44.8315 52.9968ZM43.6528 48.5979L43.8197 49.4852L43.6528 48.5979ZM41.0763 47.1104L41.928 46.8112L41.0763 47.1104ZM44.669 42.2892L44.3699 41.4374L44.669 42.2892ZM46.1566 39.7126L47.0438 39.5458L46.1566 39.7126ZM45.8477 46.688L45.6809 45.8008L45.8477 46.688ZM48.4243 48.1756L47.5725 48.4748L48.4243 48.1756ZM52.8232 46.997L51.9359 47.1638L52.8232 46.997ZM54.3107 44.4204L54.6099 45.2722L54.3107 44.4204ZM53.1321 40.0215L53.2989 40.9087L53.1321 40.0215ZM50.5555 38.5339L51.4073 38.2348L50.5555 38.5339ZM47.3774 30.553L47.0782 29.7012L47.3774 30.553ZM48.865 27.9764L49.7522 27.8096L48.865 27.9764ZM48.5561 34.9518L48.3892 34.0646L48.5561 34.9518ZM51.1326 36.4394L50.2808 36.7386L51.1326 36.4394ZM55.5315 35.2608L54.6443 35.4276L55.5315 35.2608ZM57.0191 32.6842L57.3182 33.536L57.0191 32.6842ZM55.8404 28.2853L56.0072 29.1725L55.8404 28.2853ZM53.2638 26.7977L54.1156 26.4986L53.2638 26.7977ZM38.8009 20.1709L38.5018 19.3192L38.8009 20.1709ZM40.2885 17.5944L41.1758 17.4275L40.2885 17.5944ZM39.9796 24.5698L39.8128 23.6826L39.9796 24.5698ZM42.5562 26.0574L41.7044 26.3566L42.5562 26.0574ZM46.9551 24.8787L46.0678 25.0456L46.9551 24.8787ZM48.4426 22.3022L48.7418 23.1539L48.4426 22.3022ZM47.264 17.9033L47.4308 18.7905L47.264 17.9033ZM44.6874 16.4157L45.5392 16.1166L44.6874 16.4157ZM31.9035 32.2004L31.835 31.3002L31.9035 32.2004ZM34.0073 30.0967L33.1071 30.0282L34.0073 30.0967ZM31.9035 36.7545L31.835 37.6547L31.9035 36.7545ZM34.0073 38.8582L33.1071 38.9267L34.0073 38.8582ZM38.5614 38.8582L39.4615 38.9267L38.5614 38.8582ZM40.6651 36.7545L40.7336 37.6547L40.6651 36.7545ZM40.6651 32.2004L40.7336 31.3002L40.6651 32.2004ZM38.5614 30.0967L39.4615 30.0282L38.5614 30.0967ZM47.171 7.23865C48.5896 7.91979 50.2929 7.46337 51.1809 6.16419L49.6902 5.14537C49.3054 5.70837 48.5673 5.90616 47.9525 5.61099L47.171 7.23865ZM45.7941 9.62341C44.3854 8.6606 45.6328 6.50005 47.171 7.23865L47.9525 5.61099C44.403 3.90663 41.5245 8.89225 44.7753 11.1141L45.7941 9.62341ZM46.8686 13.6333C47.5497 12.2147 47.0933 10.5114 45.7941 9.62341L44.7753 11.1141C45.3383 11.4989 45.5361 12.237 45.2409 12.8518L46.8686 13.6333ZM49.2534 15.0102C48.2905 16.4189 46.13 15.1715 46.8686 13.6333L45.2409 12.8518C43.5366 16.4013 48.5222 19.2798 50.744 16.029L49.2534 15.0102ZM53.2633 13.9357C51.8447 13.2546 50.1413 13.711 49.2534 15.0102L50.744 16.029C51.1288 15.466 51.867 15.2682 52.4817 15.5634L53.2633 13.9357ZM54.6401 11.5509C56.0488 12.5138 54.8015 14.6743 53.2633 13.9357L52.4817 15.5634C56.0313 17.2677 58.9097 12.2821 55.6589 10.0603L54.6401 11.5509ZM53.5657 7.54104C52.8845 8.95961 53.3409 10.663 54.6401 11.5509L55.6589 10.0603C55.0959 9.67548 54.8981 8.93732 55.1933 8.32259L53.5657 7.54104ZM55.1933 8.32259C56.8977 4.77305 51.912 1.89457 49.6902 5.14537L51.1809 6.16419C52.1437 4.75547 54.3042 6.00284 53.5657 7.54104L55.1933 8.32259ZM50.5679 11.8954C49.8455 12.089 49.103 11.6603 48.9094 10.9379L47.1654 11.4052C47.617 13.0908 49.3496 14.0911 51.0353 13.6395L50.5679 11.8954ZM51.5255 10.2369C51.7191 10.9593 51.2904 11.7018 50.5679 11.8954L51.0353 13.6395C52.7209 13.1878 53.7212 11.4552 53.2695 9.76958L51.5255 10.2369ZM49.867 9.27934C50.5894 9.08578 51.3319 9.51448 51.5255 10.2369L53.2695 9.76958C52.8179 8.08396 51.0853 7.08364 49.3997 7.5353L49.867 9.27934ZM49.3997 7.5353C47.714 7.98696 46.7137 9.71956 47.1654 11.4052L48.9094 10.9379C48.7159 10.2155 49.1446 9.47291 49.867 9.27934L49.3997 7.5353ZM59.6627 16.9036C60.5507 18.2028 62.2541 18.6592 63.6726 17.978L62.8911 16.3504C62.2763 16.6455 61.5382 16.4478 61.1534 15.8848L59.6627 16.9036ZM57.278 18.2804C56.5394 16.7422 58.6999 15.4948 59.6627 16.9036L61.1534 15.8848C58.9316 12.634 53.9459 15.5124 55.6503 19.062L57.278 18.2804ZM56.2035 22.2903C57.5027 21.4024 57.9591 19.699 57.278 18.2804L55.6503 19.062C55.9455 19.6767 55.7477 20.4149 55.1847 20.7996L56.2035 22.2903ZM57.5804 24.6751C56.0422 25.4137 54.7948 23.2531 56.2035 22.2903L55.1847 20.7996C51.9339 23.0215 54.8123 28.0071 58.3619 26.3027L57.5804 24.6751ZM61.5903 25.7495C60.7023 24.4503 58.9989 23.9939 57.5804 24.6751L58.3619 26.3027C58.9766 26.0076 59.7148 26.2054 60.0996 26.7683L61.5903 25.7495ZM63.975 24.3727C64.7136 25.9109 62.5531 27.1583 61.5903 25.7495L60.0996 26.7683C62.3214 30.0191 67.3071 27.1407 65.6027 23.5911L63.975 24.3727ZM65.0495 20.3628C63.7503 21.2507 63.2939 22.9541 63.975 24.3727L65.6027 23.5911C65.3075 22.9764 65.5053 22.2382 66.0683 21.8535L65.0495 20.3628ZM66.0683 21.8535C69.3191 19.6316 66.4406 14.646 62.8911 16.3504L63.6726 17.978C65.2108 17.2394 66.4582 19.4 65.0495 20.3628L66.0683 21.8535ZM60.2762 22.6349C59.5538 22.4414 59.1251 21.6988 59.3186 20.9764L57.5746 20.5091C57.1229 22.1947 58.1233 23.9273 59.8089 24.379L60.2762 22.6349ZM61.9347 21.6774C61.7411 22.3998 60.9986 22.8285 60.2762 22.6349L59.8089 24.379C61.4945 24.8306 63.2271 23.8303 63.6788 22.1447L61.9347 21.6774ZM60.9772 20.0189C61.6996 20.2124 62.1283 20.955 61.9347 21.6774L63.6788 22.1447C64.1304 20.4591 63.1301 18.7265 61.4445 18.2748L60.9772 20.0189ZM61.4445 18.2748C59.7589 17.8232 58.0263 18.8235 57.5746 20.5091L59.3186 20.9764C59.5122 20.254 60.2548 19.8253 60.9772 20.0189L61.4445 18.2748ZM65.6484 31.5193C65.7678 33.0884 67.0148 34.3353 68.5839 34.4547L68.7209 32.6544C68.0409 32.6026 67.5005 32.0622 67.4488 31.3823L65.6484 31.5193ZM62.8947 31.5193C63.0242 29.8179 65.519 29.8179 65.6484 31.5193L67.4488 31.3823C67.15 27.4561 61.3931 27.4561 61.0944 31.3823L62.8947 31.5193ZM59.9593 34.4547C61.5284 34.3353 62.7753 33.0884 62.8947 31.5193L61.0944 31.3823C61.0426 32.0622 60.5023 32.6026 59.8223 32.6544L59.9593 34.4547ZM59.9593 37.2084C58.2579 37.0789 58.2579 34.5842 59.9593 34.4547L59.8223 32.6544C55.8961 32.9531 55.8961 38.71 59.8223 39.0088L59.9593 37.2084ZM62.8947 40.1439C62.7753 38.5748 61.5284 37.3278 59.9593 37.2084L59.8223 39.0088C60.5023 39.0605 61.0426 39.6009 61.0944 40.2809L62.8947 40.1439ZM65.6484 40.1439C65.519 41.8453 63.0242 41.8453 62.8947 40.1439L61.0944 40.2809C61.3931 44.207 67.15 44.207 67.4488 40.2809L65.6484 40.1439ZM68.5839 37.2084C67.0148 37.3278 65.7678 38.5748 65.6484 40.1439L67.4488 40.2809C67.5005 39.6009 68.0409 39.0605 68.7209 39.0088L68.5839 37.2084ZM68.7209 39.0088C72.647 38.71 72.647 32.9531 68.7209 32.6544L68.5839 34.4547C70.2853 34.5842 70.2853 37.0789 68.5839 37.2084L68.7209 39.0088ZM63.314 36.7895C62.7852 36.2607 62.7852 35.4032 63.314 34.8744L62.0373 33.5977C60.8033 34.8316 60.8033 36.8323 62.0373 38.0662L63.314 36.7895ZM65.2291 36.7895C64.7003 37.3183 63.8429 37.3183 63.314 36.7895L62.0373 38.0662C63.2713 39.3002 65.2719 39.3002 66.5059 38.0662L65.2291 36.7895ZM65.2291 34.8744C65.758 35.4032 65.758 36.2607 65.2291 36.7895L66.5059 38.0662C67.7398 36.8323 67.7398 34.8316 66.5059 33.5977L65.2291 34.8744ZM66.5059 33.5977C65.2719 32.3637 63.2713 32.3637 62.0373 33.5977L63.314 34.8744C63.8429 34.3456 64.7003 34.3456 65.2291 34.8744L66.5059 33.5977ZM63.5237 47.1695C62.8425 48.5881 63.299 50.2915 64.5981 51.1794L65.617 49.6888C65.054 49.304 64.8562 48.5658 65.1514 47.9511L63.5237 47.1695ZM61.1389 45.7927C62.1017 44.3839 64.2623 45.6313 63.5237 47.1695L65.1514 47.9511C66.8557 44.4015 61.8701 41.5231 59.6483 44.7738L61.1389 45.7927ZM57.129 46.8671C58.5476 47.5483 60.251 47.0918 61.1389 45.7927L59.6483 44.7738C59.2635 45.3369 58.5253 45.5346 57.9106 45.2395L57.129 46.8671ZM55.7522 49.2519C54.3435 48.2891 55.5908 46.1285 57.129 46.8671L57.9106 45.2395C54.361 43.5351 51.4826 48.5207 54.7334 50.7425L55.7522 49.2519ZM56.8266 53.2618C57.5078 51.8432 57.0514 50.1398 55.7522 49.2519L54.7334 50.7425C55.2964 51.1273 55.4942 51.8655 55.199 52.4802L56.8266 53.2618ZM59.2114 54.6386C58.2486 56.0474 56.088 54.8 56.8266 53.2618L55.199 52.4802C53.4946 56.0298 58.4802 58.9083 60.7021 55.6575L59.2114 54.6386ZM63.2213 53.5642C61.8027 52.883 60.0993 53.3395 59.2114 54.6386L60.7021 55.6575C61.0868 55.0945 61.825 54.8967 62.4398 55.1918L63.2213 53.5642ZM62.4398 55.1918C65.9893 56.8962 68.8678 51.9106 65.617 49.6888L64.5981 51.1794C66.0069 52.1422 64.7595 54.3028 63.2213 53.5642L62.4398 55.1918ZM58.8669 50.5665C58.6734 49.8441 59.1021 49.1015 59.8245 48.9079L59.3572 47.1639C57.6715 47.6156 56.6712 49.3482 57.1229 51.0338L58.8669 50.5665ZM60.5254 51.524C59.803 51.7176 59.0605 51.2889 58.8669 50.5665L57.1229 51.0338C57.5745 52.7194 59.3071 53.7197 60.9928 53.2681L60.5254 51.524ZM61.483 49.8655C61.6766 50.5879 61.2479 51.3304 60.5254 51.524L60.9928 53.2681C62.6784 52.8164 63.6787 51.0838 63.227 49.3982L61.483 49.8655ZM63.227 49.3982C62.7754 47.7126 61.0428 46.7122 59.3572 47.1639L59.8245 48.9079C60.5469 48.7144 61.2894 49.1431 61.483 49.8655L63.227 49.3982ZM53.8582 59.6608C52.559 60.5488 52.1026 62.2521 52.7837 63.6707L54.4114 62.8892C54.1162 62.2744 54.314 61.5363 54.877 61.1515L53.8582 59.6608ZM52.4813 57.276C54.0195 56.5375 55.2669 58.698 53.8582 59.6608L54.877 61.1515C58.1278 58.9297 55.2493 53.944 51.6998 55.6484L52.4813 57.276ZM48.4714 56.2016C49.3594 57.5008 51.0627 57.9572 52.4813 57.276L51.6998 55.6484C51.085 55.9436 50.3469 55.7458 49.9621 55.1828L48.4714 56.2016ZM46.0867 57.5784C45.3481 56.0402 47.5086 54.7929 48.4714 56.2016L49.9621 55.1828C47.7403 51.932 42.7546 54.8104 44.459 58.36L46.0867 57.5784ZM45.0122 61.5883C46.3114 60.7004 46.7678 58.997 46.0867 57.5784L44.459 58.36C44.7542 58.9747 44.5564 59.7129 43.9934 60.0977L45.0122 61.5883ZM46.389 63.9731C44.8509 64.7117 43.6035 62.5512 45.0122 61.5883L43.9934 60.0977C40.7426 62.3195 43.621 67.3051 47.1706 65.6008L46.389 63.9731ZM50.3989 65.0475C49.511 63.7484 47.8076 63.292 46.389 63.9731L47.1706 65.6008C47.7853 65.3056 48.5235 65.5034 48.9083 66.0664L50.3989 65.0475ZM48.9083 66.0664C51.1301 69.3172 56.1157 66.4387 54.4114 62.8892L52.7837 63.6707C53.5223 65.2089 51.3618 66.4563 50.3989 65.0475L48.9083 66.0664ZM48.1268 60.2743C48.3204 59.5519 49.0629 59.1232 49.7853 59.3167L50.2526 57.5727C48.567 57.121 46.8344 58.1213 46.3828 59.807L48.1268 60.2743ZM49.0844 61.9328C48.3619 61.7392 47.9332 60.9967 48.1268 60.2743L46.3828 59.807C45.9311 61.4926 46.9314 63.2252 48.617 63.6768L49.0844 61.9328ZM50.7429 60.9752C50.5493 61.6977 49.8068 62.1264 49.0844 61.9328L48.617 63.6768C50.3027 64.1285 52.0353 63.1282 52.4869 61.4426L50.7429 60.9752ZM52.4869 61.4426C52.9386 59.7569 51.9383 58.0243 50.2526 57.5727L49.7853 59.3167C50.5077 59.5103 50.9364 60.2528 50.7429 60.9752L52.4869 61.4426ZM39.2426 65.6461C37.6735 65.7655 36.4265 67.0125 36.3071 68.5816L38.1075 68.7186C38.1592 68.0386 38.6996 67.4982 39.3796 67.4465L39.2426 65.6461ZM39.2426 62.8924C40.944 63.0219 40.944 65.5167 39.2426 65.6461L39.3796 67.4465C43.3057 67.1477 43.3057 61.3908 39.3796 61.0921L39.2426 62.8924ZM36.3071 59.957C36.4265 61.5261 37.6735 62.773 39.2426 62.8924L39.3796 61.0921C38.6996 61.0403 38.1592 60.5 38.1075 59.82L36.3071 59.957ZM33.5534 59.957C33.6829 58.2556 36.1777 58.2556 36.3071 59.957L38.1075 59.82C37.8087 55.8938 32.0518 55.8938 31.7531 59.82L33.5534 59.957ZM30.618 62.8924C32.1871 62.773 33.434 61.5261 33.5534 59.957L31.7531 59.82C31.7013 60.5 31.161 61.0403 30.481 61.0921L30.618 62.8924ZM30.618 65.6461C28.9166 65.5167 28.9166 63.0219 30.618 62.8924L30.481 61.0921C26.5548 61.3908 26.5548 67.1477 30.481 67.4465L30.618 65.6461ZM33.5534 68.5816C33.434 67.0125 32.1871 65.7655 30.618 65.6461L30.481 67.4465C31.161 67.4982 31.7013 68.0386 31.7531 68.7186L33.5534 68.5816ZM31.7531 68.7186C32.0518 72.6447 37.8087 72.6448 38.1075 68.7186L36.3071 68.5816C36.1777 70.283 33.6829 70.283 33.5534 68.5816L31.7531 68.7186ZM33.9723 63.3117C34.5012 62.7829 35.3586 62.7829 35.8874 63.3117L37.1642 62.035C35.9302 60.801 33.9296 60.801 32.6956 62.035L33.9723 63.3117ZM33.9723 65.2268C33.4435 64.698 33.4435 63.8406 33.9723 63.3117L32.6956 62.035C31.4617 63.269 31.4617 65.2696 32.6956 66.5035L33.9723 65.2268ZM35.8874 65.2268C35.3586 65.7557 34.5012 65.7557 33.9723 65.2268L32.6956 66.5035C33.9296 67.7375 35.9302 67.7375 37.1642 66.5035L35.8874 65.2268ZM37.1642 66.5035C38.3981 65.2696 38.3981 63.269 37.1642 62.035L35.8874 63.3117C36.4163 63.8406 36.4163 64.698 35.8874 65.2268L37.1642 66.5035ZM23.5922 63.5218C22.1736 62.8406 20.4703 63.2971 19.5823 64.5962L21.073 65.615C21.4578 65.052 22.1959 64.8543 22.8107 65.1494L23.5922 63.5218ZM24.9691 61.137C26.3778 62.0998 25.1304 64.2604 23.5922 63.5218L22.8107 65.1494C26.3602 66.8538 29.2387 61.8682 25.9879 59.6463L24.9691 61.137ZM23.8946 57.1271C23.2135 58.5457 23.6699 60.2491 24.9691 61.137L25.9879 59.6463C25.4249 59.2616 25.2271 58.5234 25.5223 57.9087L23.8946 57.1271ZM21.5098 55.7503C22.4727 54.3415 24.6332 55.5889 23.8946 57.1271L25.5223 57.9087C27.2266 54.3591 22.241 51.4806 20.0192 54.7314L21.5098 55.7503ZM17.5 56.8247C18.9185 57.5059 20.6219 57.0494 21.5098 55.7503L20.0192 54.7314C19.6344 55.2944 18.8962 55.4922 18.2815 55.1971L17.5 56.8247ZM16.1231 59.2095C14.7144 58.2467 15.9617 56.0861 17.5 56.8247L18.2815 55.1971C14.732 53.4927 11.8535 58.4783 15.1043 60.7001L16.1231 59.2095ZM17.1976 63.2194C17.8787 61.8008 17.4223 60.0974 16.1231 59.2095L15.1043 60.7001C15.6673 61.0849 15.8651 61.8231 15.5699 62.4378L17.1976 63.2194ZM15.5699 62.4378C13.8655 65.9874 18.8512 68.8659 21.073 65.615L19.5823 64.5962C18.6195 66.0049 16.459 64.7576 17.1976 63.2194L15.5699 62.4378ZM20.1953 58.865C20.9177 58.6714 21.6602 59.1001 21.8538 59.8226L23.5978 59.3552C23.1462 57.6696 21.4136 56.6693 19.7279 57.121L20.1953 58.865ZM19.2377 60.5235C19.0441 59.8011 19.4729 59.0586 20.1953 58.865L19.7279 57.121C18.0423 57.5726 17.042 59.3052 17.4937 60.9908L19.2377 60.5235ZM20.8962 61.4811C20.1738 61.6746 19.4313 61.2459 19.2377 60.5235L17.4937 60.9908C17.9453 62.6765 19.6779 63.6768 21.3636 63.2251L20.8962 61.4811ZM21.3636 63.2251C23.0492 62.7735 24.0495 61.0409 23.5978 59.3552L21.8538 59.8226C22.0474 60.545 21.6186 61.2875 20.8962 61.4811L21.3636 63.2251ZM11.1005 53.8569C10.2125 52.5577 8.50915 52.1013 7.09058 52.7825L7.87213 54.4101C8.48687 54.1149 9.22503 54.3127 9.60982 54.8757L11.1005 53.8569ZM13.4852 52.4801C14.2238 54.0182 12.0633 55.2656 11.1005 53.8569L9.60982 54.8757C11.8316 58.1265 16.8173 55.2481 15.1129 51.6985L13.4852 52.4801ZM14.5597 48.4702C13.2605 49.3581 12.8041 51.0615 13.4852 52.4801L15.1129 51.6985C14.8177 51.0838 15.0155 50.3456 15.5785 49.9608L14.5597 48.4702ZM13.1829 46.0854C14.721 45.3468 15.9684 47.5073 14.5597 48.4702L15.5785 49.9608C18.8293 47.739 15.9509 42.7534 12.4013 44.4577L13.1829 46.0854ZM9.17295 45.0109C10.0609 46.3101 11.7643 46.7665 13.1829 46.0854L12.4013 44.4577C11.7866 44.7529 11.0484 44.5551 10.6636 43.9921L9.17295 45.0109ZM6.78819 46.3878C6.0496 44.8496 8.21013 43.6022 9.17295 45.0109L10.6636 43.9921C8.44181 40.7413 3.45616 43.6198 5.16053 47.1693L6.78819 46.3878ZM5.71374 50.3977C7.01292 49.5097 7.46934 47.8064 6.78819 46.3878L5.16053 47.1693C5.45571 47.7841 5.25792 48.5222 4.69492 48.907L5.71374 50.3977ZM4.69492 48.907C1.44413 51.1288 4.32257 56.1145 7.87213 54.4101L7.09058 52.7825C5.5524 53.521 4.305 51.3605 5.71374 50.3977L4.69492 48.907ZM10.487 48.1255C11.2094 48.3191 11.6381 49.0617 11.4446 49.7841L13.1886 50.2514C13.6403 48.5658 12.64 46.8332 10.9543 46.3815L10.487 48.1255ZM8.8285 49.0831C9.02207 48.3607 9.76461 47.932 10.487 48.1255L10.9543 46.3815C9.26872 45.9298 7.53611 46.9302 7.08445 48.6158L8.8285 49.0831ZM9.78605 50.7416C9.06364 50.548 8.63493 49.8055 8.8285 49.0831L7.08445 48.6158C6.63279 50.3014 7.63311 52.034 9.31873 52.4857L9.78605 50.7416ZM9.31873 52.4857C11.0043 52.9373 12.737 51.937 13.1886 50.2514L11.4446 49.7841C11.251 50.5065 10.5085 50.9352 9.78605 50.7416L9.31873 52.4857ZM5.11478 39.2412C4.99539 37.6721 3.74842 36.4251 2.17933 36.3058L2.04234 38.1061C2.7223 38.1579 3.26268 38.6982 3.31442 39.3782L5.11478 39.2412ZM7.86847 39.2412C7.73901 40.9426 5.24424 40.9426 5.11478 39.2412L3.31442 39.3782C3.61316 43.3044 9.37009 43.3044 9.66883 39.3782L7.86847 39.2412ZM10.8039 36.3058C9.23482 36.4251 7.98786 37.6721 7.86847 39.2412L9.66883 39.3782C9.72057 38.6982 10.2609 38.1579 10.9409 38.1061L10.8039 36.3058ZM10.8039 33.5521C12.5053 33.6815 12.5053 36.1763 10.8039 36.3058L10.9409 38.1061C14.8671 37.8074 14.8671 32.0504 10.9409 31.7517L10.8039 33.5521ZM7.86847 30.6166C7.98786 32.1857 9.23483 33.4327 10.8039 33.5521L10.9409 31.7517C10.2609 31.7 9.72057 31.1596 9.66883 30.4796L7.86847 30.6166ZM5.11478 30.6166C5.24424 28.9152 7.73901 28.9152 7.86847 30.6166L9.66883 30.4796C9.37008 26.5534 3.61316 26.5534 3.31442 30.4796L5.11478 30.6166ZM2.17933 33.5521C3.74843 33.4327 4.99539 32.1857 5.11478 30.6166L3.31442 30.4796C3.26268 31.1596 2.72231 31.7 2.04234 31.7517L2.17933 33.5521ZM2.04234 31.7517C-1.88383 32.0504 -1.88385 37.8074 2.04234 38.1061L2.17933 36.3058C0.477927 36.1763 0.477913 33.6815 2.17933 33.5521L2.04234 31.7517ZM7.44918 33.971C7.97802 34.4998 7.97802 35.3572 7.44918 35.8861L8.72591 37.1628C9.95987 35.9288 9.95987 33.9282 8.72591 32.6942L7.44918 33.971ZM5.53409 33.971C6.06293 33.4421 6.92034 33.4421 7.44918 33.971L8.72591 32.6942C7.49195 31.4603 5.49132 31.4603 4.25736 32.6942L5.53409 33.971ZM5.53409 35.8861C5.00525 35.3572 5.00525 34.4998 5.53409 33.971L4.25736 32.6942C3.0234 33.9282 3.0234 35.9288 4.25736 37.1628L5.53409 35.8861ZM4.25736 37.1628C5.49132 38.3968 7.49195 38.3968 8.72591 37.1628L7.44918 35.8861C6.92034 36.4149 6.06293 36.4149 5.53409 35.8861L4.25736 37.1628ZM7.23952 23.591C7.92067 22.1724 7.46424 20.469 6.16507 19.5811L5.14625 21.0717C5.70925 21.4565 5.90704 22.1947 5.61186 22.8094L7.23952 23.591ZM9.62428 24.9678C8.66146 26.3765 6.50093 25.1292 7.23952 23.591L5.61186 22.8094C3.9075 26.3589 8.89313 29.2374 11.1149 25.9866L9.62428 24.9678ZM13.6342 23.8934C12.2156 23.2122 10.5122 23.6686 9.62428 24.9678L11.1149 25.9866C11.4997 25.4236 12.2379 25.2258 12.8526 25.521L13.6342 23.8934ZM15.011 21.5086C16.4198 22.4714 15.1724 24.6319 13.6342 23.8934L12.8526 25.521C16.4022 27.2254 19.2807 22.2397 16.0298 20.0179L15.011 21.5086ZM13.9366 17.4987C13.2554 18.9173 13.7119 20.6206 15.011 21.5086L16.0298 20.0179C15.4668 19.6331 15.2691 18.895 15.5642 18.2802L13.9366 17.4987ZM11.5518 16.1218C12.5146 14.7131 14.6752 15.9605 13.9366 17.4987L15.5642 18.2802C17.2686 14.7307 12.283 11.8522 10.0611 15.103L11.5518 16.1218ZM7.54191 17.1963C8.96049 17.8774 10.6639 17.421 11.5518 16.1218L10.0611 15.103C9.67636 15.666 8.9382 15.8638 8.32346 15.5686L7.54191 17.1963ZM8.32346 15.5686C4.77392 13.8643 1.89544 18.8499 5.14625 21.0717L6.16507 19.5811C4.75634 18.6182 6.00371 16.4577 7.54191 17.1963L8.32346 15.5686ZM11.8963 20.194C12.0899 20.9164 11.6611 21.659 10.9387 21.8525L11.4061 23.5966C13.0917 23.1449 14.092 21.4123 13.6403 19.7267L11.8963 20.194ZM10.2378 19.2365C10.9602 19.0429 11.7027 19.4716 11.8963 20.194L13.6403 19.7267C13.1887 18.0411 11.4561 17.0408 9.77045 17.4924L10.2378 19.2365ZM9.28022 20.895C9.08665 20.1726 9.51536 19.43 10.2378 19.2365L9.77045 17.4924C8.08483 17.9441 7.08451 19.6767 7.53617 21.3623L9.28022 20.895ZM7.53617 21.3623C7.98783 23.0479 9.72044 24.0482 11.4061 23.5966L10.9387 21.8525C10.2163 22.0461 9.47379 21.6174 9.28022 20.895L7.53617 21.3623ZM16.9051 11.0996C18.2042 10.2117 18.6606 8.50828 17.9795 7.08971L16.3518 7.87125C16.647 8.48599 16.4492 9.22415 15.8862 9.60894L16.9051 11.0996ZM18.2819 13.4844C16.7437 14.223 15.4963 12.0624 16.9051 11.0996L15.8862 9.60894C12.6354 11.8308 15.5139 16.8164 19.0634 15.112L18.2819 13.4844ZM22.2918 14.5588C21.4038 13.2596 19.7005 12.8032 18.2819 13.4844L19.0634 15.112C19.6782 14.8169 20.4163 15.0146 20.8011 15.5776L22.2918 14.5588ZM24.6766 13.182C25.4151 14.7202 23.2546 15.9676 22.2918 14.5588L20.8011 15.5776C23.0229 18.8284 28.0086 15.95 26.3042 12.4004L24.6766 13.182ZM25.751 9.17208C24.4518 10.06 23.9954 11.7634 24.6766 13.182L26.3042 12.4004C26.009 11.7857 26.2068 11.0475 26.7698 10.6627L25.751 9.17208ZM24.3742 6.78731C25.9124 6.04873 27.1597 8.20925 25.751 9.17208L26.7698 10.6627C30.0206 8.44094 27.1422 3.45529 23.5926 5.15966L24.3742 6.78731ZM20.3643 5.71287C21.2522 7.01204 22.9556 7.46846 24.3742 6.78731L23.5926 5.15966C22.9779 5.45483 22.2397 5.25704 21.8549 4.69405L20.3643 5.71287ZM21.8549 4.69405C19.6331 1.44325 14.6475 4.3217 16.3518 7.87125L17.9795 7.08971C17.2409 5.55152 19.4014 4.30413 20.3643 5.71287L21.8549 4.69405ZM22.6364 10.4861C22.4428 11.2086 21.7003 11.6373 20.9779 11.4437L20.5106 13.1877C22.1962 13.6394 23.9288 12.6391 24.3804 10.9535L22.6364 10.4861ZM21.6789 8.82763C22.4013 9.02119 22.83 9.76374 22.6364 10.4861L24.3804 10.9535C24.8321 9.26784 23.8318 7.53524 22.1462 7.08358L21.6789 8.82763ZM20.0203 9.78517C20.2139 9.06277 20.9564 8.63406 21.6789 8.82763L22.1462 7.08358C20.4606 6.63192 18.728 7.63224 18.2763 9.31786L20.0203 9.78517ZM18.2763 9.31786C17.8246 11.0035 18.825 12.7361 20.5106 13.1877L20.9779 11.4437C20.2555 11.2501 19.8268 10.5076 20.0203 9.78517L18.2763 9.31786ZM31.5206 5.11429C33.0897 4.9949 34.3367 3.74793 34.4561 2.17884L32.6557 2.04185C32.604 2.72182 32.0636 3.26219 31.3837 3.31393L31.5206 5.11429ZM31.5206 7.86798C29.8192 7.73852 29.8192 5.24375 31.5206 5.11429L31.3837 3.31393C27.4575 3.61267 27.4575 9.3696 31.3836 9.66834L31.5206 7.86798ZM34.4561 10.8034C34.3367 9.23434 33.0897 7.98737 31.5206 7.86798L31.3836 9.66834C32.0636 9.72008 32.604 10.2605 32.6557 10.9404L34.4561 10.8034ZM37.2098 10.8034C37.0803 12.5048 34.5856 12.5049 34.4561 10.8034L32.6557 10.9404C32.9545 14.8666 38.7114 14.8666 39.0101 10.9404L37.2098 10.8034ZM40.1452 7.86798C38.5761 7.98738 37.3292 9.23434 37.2098 10.8034L39.0101 10.9404C39.0619 10.2605 39.6023 9.72009 40.2822 9.66835L40.1452 7.86798ZM40.1452 5.11429C41.8466 5.24375 41.8466 7.73852 40.1452 7.86798L40.2822 9.66835C44.2084 9.3696 44.2084 3.61268 40.2822 3.31393L40.1452 5.11429ZM37.2098 2.17884C37.3292 3.74794 38.5761 4.9949 40.1452 5.11429L40.2822 3.31393C39.6023 3.26219 39.0619 2.72182 39.0101 2.04185L37.2098 2.17884ZM39.0101 2.04185C38.7114 -1.88432 32.9545 -1.88434 32.6557 2.04185L34.4561 2.17884C34.5856 0.477439 37.0803 0.477424 37.2098 2.17884L39.0101 2.04185ZM36.7909 7.44869C36.262 7.97753 35.4046 7.97753 34.8758 7.44869L33.599 8.72542C34.833 9.95938 36.8336 9.95938 38.0676 8.72542L36.7909 7.44869ZM36.7909 5.5336C37.3197 6.06244 37.3197 6.91986 36.7909 7.44869L38.0676 8.72542C39.3016 7.49147 39.3016 5.49083 38.0676 4.25687L36.7909 5.5336ZM34.8758 5.5336C35.4046 5.00476 36.262 5.00476 36.7909 5.5336L38.0676 4.25687C36.8336 3.02291 34.833 3.02291 33.599 4.25687L34.8758 5.5336ZM33.599 4.25687C32.3651 5.49083 32.3651 7.49147 33.599 8.72542L34.8758 7.44869C34.3469 6.91986 34.3469 6.06244 34.8758 5.5336L33.599 4.25687ZM26.4611 18.7658C27.9458 18.2443 28.8276 16.7171 28.5368 15.1706L26.7623 15.5042C26.8883 16.1744 26.5062 16.8362 25.8628 17.0622L26.4611 18.7658ZM27.1738 21.4256C25.4969 21.7409 24.8512 19.3312 26.4611 18.7658L25.8628 17.0622C22.1477 18.3669 23.6377 23.9277 27.5074 23.2001L27.1738 21.4256ZM30.769 23.5013C30.2475 22.0166 28.7203 21.1348 27.1738 21.4256L27.5074 23.2001C28.1776 23.0741 28.8395 23.4562 29.0654 24.0996L30.769 23.5013ZM33.4288 22.7886C33.7441 24.4655 31.3344 25.1112 30.769 23.5013L29.0654 24.0996C30.3702 27.8147 35.9309 26.3247 35.2033 22.455L33.4288 22.7886ZM35.5045 19.1934C34.0198 19.7149 33.1381 21.2421 33.4288 22.7886L35.2033 22.455C35.0773 21.7848 35.4594 21.1229 36.1028 20.897L35.5045 19.1934ZM34.7918 16.5336C36.4688 16.2183 37.1145 18.628 35.5045 19.1934L36.1028 20.897C39.8179 19.5922 38.3279 14.0315 34.4582 14.7591L34.7918 16.5336ZM31.1966 14.4579C31.7181 15.9426 33.2453 16.8243 34.7918 16.5336L34.4582 14.7591C33.788 14.8851 33.1262 14.503 32.9002 13.8596L31.1966 14.4579ZM32.9002 13.8596C31.5955 10.1445 26.0347 11.6345 26.7623 15.5042L28.5368 15.1706C28.2215 13.4937 30.6312 12.8479 31.1966 14.4579L32.9002 13.8596ZM32.1559 19.6566C31.782 20.3043 30.9538 20.5262 30.3061 20.1523L29.4033 21.7159C30.9146 22.5885 32.8471 22.0707 33.7196 20.5594L32.1559 19.6566ZM31.6603 17.8067C32.308 18.1807 32.5299 19.0089 32.1559 19.6566L33.7196 20.5594C34.5921 19.0481 34.0743 17.1156 32.5631 16.2431L31.6603 17.8067ZM29.8104 18.3024C30.1844 17.6547 31.0126 17.4328 31.6603 17.8067L32.5631 16.2431C31.0518 15.3705 29.1193 15.8883 28.2468 17.3996L29.8104 18.3024ZM28.2468 17.3996C27.3742 18.9109 27.892 20.8434 29.4033 21.7159L30.3061 20.1523C29.6584 19.7783 29.4365 18.9501 29.8104 18.3024L28.2468 17.3996ZM17.8846 27.3422C19.3694 26.8208 20.2511 25.2936 19.9603 23.747L18.1859 24.0807C18.3119 24.7509 17.9298 25.4127 17.2864 25.6387L17.8846 27.3422ZM18.5974 30.0021C16.9204 30.3174 16.2747 27.9076 17.8846 27.3422L17.2864 25.6387C13.5713 26.9434 15.0613 32.5042 18.931 31.7766L18.5974 30.0021ZM22.1925 32.0778C21.6711 30.593 20.1439 29.7113 18.5974 30.0021L18.931 31.7766C19.6012 31.6505 20.263 32.0326 20.489 32.676L22.1925 32.0778ZM24.8524 31.365C25.1677 33.042 22.7579 33.6877 22.1925 32.0778L20.489 32.676C21.7937 36.3911 27.3545 34.9011 26.6269 31.0314L24.8524 31.365ZM26.9281 27.7699C25.4433 28.2913 24.5616 29.8185 24.8524 31.365L26.6269 31.0314C26.5009 30.3612 26.883 29.6994 27.5264 29.4734L26.9281 27.7699ZM26.2154 25.11C27.8923 24.7947 28.538 27.2045 26.9281 27.7699L27.5264 29.4734C31.2414 28.1687 29.7514 22.6079 25.8817 23.3355L26.2154 25.11ZM22.6202 23.0343C23.1416 24.5191 24.6688 25.4008 26.2154 25.11L25.8817 23.3355C25.2115 23.4615 24.5497 23.0794 24.3237 22.436L22.6202 23.0343ZM24.3237 22.436C23.019 18.721 17.4582 20.211 18.1859 24.0807L19.9603 23.747C19.645 22.0701 22.0548 21.4244 22.6202 23.0343L24.3237 22.436ZM23.5795 28.233C23.2055 28.8807 22.3773 29.1026 21.7296 28.7287L20.8269 30.2924C22.3381 31.1649 24.2706 30.6471 25.1432 29.1358L23.5795 28.233ZM23.0838 26.3832C23.7315 26.7571 23.9534 27.5853 23.5795 28.233L25.1432 29.1358C26.0157 27.6245 25.4979 25.6921 23.9866 24.8195L23.0838 26.3832ZM21.234 26.8789C21.6079 26.2312 22.4361 26.0093 23.0838 26.3832L23.9866 24.8195C22.4753 23.947 20.5429 24.4648 19.6703 25.9761L21.234 26.8789ZM19.6703 25.9761C18.7978 27.4874 19.3156 29.4198 20.8269 30.2924L21.7296 28.7287C21.082 28.3548 20.86 27.5266 21.234 26.8789L19.6703 25.9761ZM14.7249 39.0784C16.2096 38.557 17.0914 37.0298 16.8006 35.4832L15.0261 35.8169C15.1521 36.4871 14.77 37.1489 14.1266 37.3749L14.7249 39.0784ZM15.4376 41.7383C13.7607 42.0536 13.115 39.6438 14.7249 39.0784L14.1266 37.3749C10.4115 38.6796 11.9015 44.2404 15.7713 43.5127L15.4376 41.7383ZM19.0328 43.8139C18.5113 42.3292 16.9841 41.4475 15.4376 41.7383L15.7713 43.5127C16.4414 43.3867 17.1033 43.7688 17.3292 44.4122L19.0328 43.8139ZM21.6926 43.1012C22.008 44.7782 19.5982 45.4239 19.0328 43.8139L17.3292 44.4122C18.634 48.1273 24.1947 46.6373 23.4671 42.7676L21.6926 43.1012ZM23.7683 39.5061C22.2836 40.0275 21.4019 41.5547 21.6926 43.1012L23.4671 42.7676C23.3411 42.0974 23.7232 41.4356 24.3666 41.2096L23.7683 39.5061ZM23.0556 36.8462C24.7325 36.5309 25.3783 38.9407 23.7683 39.5061L24.3666 41.2096C28.0817 39.9049 26.5917 34.3441 22.722 35.0717L23.0556 36.8462ZM19.4604 34.7705C19.9819 36.2553 21.5091 37.137 23.0556 36.8462L22.722 35.0717C22.0518 35.1977 21.39 34.8156 21.164 34.1722L19.4604 34.7705ZM21.164 34.1722C19.8593 30.4572 14.2985 31.9472 15.0261 35.8169L16.8006 35.4832C16.4853 33.8063 18.895 33.1606 19.4604 34.7705L21.164 34.1722ZM20.4197 39.9692C20.0458 40.6169 19.2176 40.8388 18.5699 40.4649L17.6671 42.0286C19.1784 42.9011 21.1109 42.3833 21.9834 40.872L20.4197 39.9692ZM19.9241 38.1194C20.5718 38.4933 20.7937 39.3215 20.4197 39.9692L21.9834 40.872C22.8559 39.3607 22.3381 37.4283 20.8269 36.5557L19.9241 38.1194ZM18.0742 38.6151C18.4482 37.9674 19.2764 37.7455 19.9241 38.1194L20.8269 36.5557C19.3156 35.6832 17.3831 36.201 16.5106 37.7123L18.0742 38.6151ZM16.5106 37.7123C15.638 39.2236 16.1558 41.156 17.6671 42.0286L18.5699 40.4649C17.9222 40.091 17.7003 39.2628 18.0742 38.6151L16.5106 37.7123ZM23.7527 48.1063C25.2375 47.5848 26.1192 46.0576 25.8284 44.5111L24.0539 44.8447C24.18 45.5149 23.7979 46.1768 23.1545 46.4027L23.7527 48.1063ZM24.4655 50.7661C22.7885 51.0815 22.1428 48.6717 23.7527 48.1063L23.1545 46.4027C19.4394 47.7075 20.9294 53.2682 24.7991 52.5406L24.4655 50.7661ZM28.0606 52.8418C27.5392 51.3571 26.012 50.4754 24.4655 50.7661L24.7991 52.5406C25.4693 52.4146 26.1311 52.7967 26.3571 53.4401L28.0606 52.8418ZM30.7205 52.1291C31.0358 53.8061 28.626 54.4518 28.0606 52.8418L26.3571 53.4401C27.6618 57.1552 33.2226 55.6652 32.495 51.7955L30.7205 52.1291ZM32.7962 48.5339C31.3114 49.0554 30.4297 50.5826 30.7205 52.1291L32.495 51.7955C32.369 51.1253 32.7511 50.4635 33.3945 50.2375L32.7962 48.5339ZM32.0835 45.8741C33.7604 45.5588 34.4061 47.9685 32.7962 48.5339L33.3945 50.2375C37.1095 48.9328 35.6195 43.372 31.7498 44.0996L32.0835 45.8741ZM28.4883 43.7984C29.0097 45.2831 30.5369 46.1649 32.0835 45.8741L31.7498 44.0996C31.0796 44.2256 30.4178 43.8435 30.1918 43.2001L28.4883 43.7984ZM30.1918 43.2001C28.8871 39.485 23.3263 40.975 24.0539 44.8447L25.8284 44.5111C25.5131 42.8342 27.9229 42.1885 28.4883 43.7984L30.1918 43.2001ZM29.4476 48.9971C29.0736 49.6448 28.2454 49.8667 27.5977 49.4928L26.695 51.0564C28.2062 51.929 30.1387 51.4112 31.0112 49.8999L29.4476 48.9971ZM28.9519 47.1473C29.5996 47.5212 29.8215 48.3494 29.4476 48.9971L31.0112 49.8999C31.8838 48.3886 31.366 46.4561 29.8547 45.5836L28.9519 47.1473ZM27.1021 47.6429C27.476 46.9952 28.3042 46.7733 28.9519 47.1473L29.8547 45.5836C28.3434 44.7111 26.411 45.2289 25.5384 46.7401L27.1021 47.6429ZM25.5384 46.7401C24.6659 48.2514 25.1837 50.1839 26.695 51.0564L27.5977 49.4928C26.9501 49.1188 26.7281 48.2906 27.1021 47.6429L25.5384 46.7401ZM35.4889 51.7174C36.9737 51.196 37.8554 49.6687 37.5646 48.1222L35.7901 48.4559C35.9162 49.126 35.5341 49.7879 34.8906 50.0138L35.4889 51.7174ZM36.2016 54.3773C34.5247 54.6926 33.879 52.2828 35.4889 51.7174L34.8906 50.0138C31.1756 51.3186 32.6656 56.8793 36.5353 56.1517L36.2016 54.3773ZM39.7968 56.4529C39.2754 54.9682 37.7482 54.0865 36.2016 54.3773L36.5353 56.1517C37.2055 56.0257 37.8673 56.4078 38.0933 57.0512L39.7968 56.4529ZM42.4567 55.7402C42.772 57.4172 40.3622 58.0629 39.7968 56.4529L38.0933 57.0512C39.398 60.7663 44.9588 59.2763 44.2312 55.4066L42.4567 55.7402ZM44.5324 52.145C43.0476 52.6665 42.1659 54.1937 42.4567 55.7402L44.2312 55.4066C44.1051 54.7364 44.4872 54.0746 45.1307 53.8486L44.5324 52.145ZM43.8197 49.4852C45.4966 49.1699 46.1423 51.5796 44.5324 52.145L45.1307 53.8486C48.8457 52.5439 47.3557 46.9831 43.486 47.7107L43.8197 49.4852ZM40.2245 47.4095C40.7459 48.8942 42.2731 49.776 43.8197 49.4852L43.486 47.7107C42.8158 47.8367 42.154 47.4546 41.928 46.8112L40.2245 47.4095ZM41.928 46.8112C40.6233 43.0961 35.0625 44.5861 35.7901 48.4559L37.5646 48.1222C37.2493 46.4453 39.6591 45.7996 40.2245 47.4095L41.928 46.8112ZM41.1838 52.6082C40.8098 53.2559 39.9816 53.4778 39.3339 53.1039L38.4312 54.6675C39.9424 55.5401 41.8749 55.0223 42.7474 53.511L41.1838 52.6082ZM40.6881 50.7584C41.3358 51.1323 41.5577 51.9605 41.1838 52.6082L42.7474 53.511C43.62 51.9997 43.1022 50.0672 41.5909 49.1947L40.6881 50.7584ZM38.8383 51.254C39.2122 50.6063 40.0404 50.3844 40.6881 50.7584L41.5909 49.1947C40.0796 48.3222 38.1471 48.84 37.2746 50.3513L38.8383 51.254ZM37.2746 50.3513C36.4021 51.8625 36.9199 53.795 38.4312 54.6675L39.3339 53.1039C38.6862 52.7299 38.4643 51.9017 38.8383 51.254L37.2746 50.3513ZM44.9682 43.1409C46.4529 42.6195 47.3346 41.0923 47.0438 39.5458L45.2694 39.8794C45.3954 40.5496 45.0133 41.2114 44.3699 41.4374L44.9682 43.1409ZM45.6809 45.8008C44.0039 46.1161 43.3582 43.7064 44.9682 43.1409L44.3699 41.4374C40.6548 42.7421 42.1448 48.3029 46.0145 47.5753L45.6809 45.8008ZM49.2761 47.8765C48.7546 46.3918 47.2274 45.51 45.6809 45.8008L46.0145 47.5753C46.6847 47.4493 47.3465 47.8314 47.5725 48.4748L49.2761 47.8765ZM51.9359 47.1638C52.2512 48.8407 49.8415 49.4864 49.2761 47.8765L47.5725 48.4748C48.8772 52.1898 54.438 50.6999 53.7104 46.8301L51.9359 47.1638ZM54.0116 43.5686C52.5269 44.09 51.6451 45.6172 51.9359 47.1638L53.7104 46.8301C53.5844 46.1599 53.9665 45.4981 54.6099 45.2722L54.0116 43.5686ZM53.2989 40.9087C54.9758 40.5934 55.6215 43.0032 54.0116 43.5686L54.6099 45.2722C58.325 43.9674 56.835 38.4067 52.9652 39.1343L53.2989 40.9087ZM49.7037 38.8331C50.2251 40.3178 51.7524 41.1995 53.2989 40.9087L52.9652 39.1343C52.2951 39.2603 51.6332 38.8782 51.4073 38.2348L49.7037 38.8331ZM51.4073 38.2348C50.1025 34.5197 44.5418 36.0097 45.2694 39.8794L47.0438 39.5458C46.7285 37.8688 49.1383 37.2231 49.7037 38.8331L51.4073 38.2348ZM50.663 44.0318C50.2891 44.6795 49.4609 44.9014 48.8132 44.5274L47.9104 46.0911C49.4217 46.9636 51.3541 46.4458 52.2267 44.9346L50.663 44.0318ZM50.1674 42.1819C50.815 42.5559 51.037 43.3841 50.663 44.0318L52.2267 44.9346C53.0992 43.4233 52.5814 41.4908 51.0701 40.6183L50.1674 42.1819ZM48.3175 42.6776C48.6915 42.0299 49.5197 41.808 50.1674 42.1819L51.0701 40.6183C49.5589 39.7457 47.6264 40.2635 46.7538 41.7748L48.3175 42.6776ZM46.7538 41.7748C45.8813 43.2861 46.3991 45.2186 47.9104 46.0911L48.8132 44.5274C48.1655 44.1535 47.9436 43.3253 48.3175 42.6776L46.7538 41.7748ZM47.6765 31.4047C49.1613 30.8833 50.043 29.3561 49.7522 27.8096L47.9777 28.1432C48.1037 28.8134 47.7216 29.4752 47.0782 29.7012L47.6765 31.4047ZM48.3892 34.0646C46.7123 34.3799 46.0666 31.9702 47.6765 31.4047L47.0782 29.7012C43.3632 31.0059 44.8532 36.5667 48.7229 35.8391L48.3892 34.0646ZM51.9844 36.1403C51.463 34.6556 49.9358 33.7738 48.3892 34.0646L48.7229 35.8391C49.3931 35.7131 50.0549 36.0952 50.2808 36.7386L51.9844 36.1403ZM54.6443 35.4276C54.9596 37.1045 52.5498 37.7502 51.9844 36.1403L50.2808 36.7386C51.5856 40.4536 57.1464 38.9637 56.4187 35.0939L54.6443 35.4276ZM56.7199 31.8324C55.2352 32.3538 54.3535 33.8811 54.6443 35.4276L56.4187 35.0939C56.2927 34.4237 56.6748 33.7619 57.3182 33.536L56.7199 31.8324ZM56.0072 29.1725C57.6842 28.8572 58.3299 31.267 56.7199 31.8324L57.3182 33.536C61.0333 32.2312 59.5433 26.6705 55.6736 27.3981L56.0072 29.1725ZM52.4121 27.0969C52.9335 28.5816 54.4607 29.4633 56.0072 29.1725L55.6736 27.3981C55.0034 27.5241 54.3416 27.142 54.1156 26.4986L52.4121 27.0969ZM54.1156 26.4986C52.8109 22.7835 47.2501 24.2735 47.9777 28.1432L49.7522 27.8096C49.4369 26.1326 51.8467 25.4869 52.4121 27.0969L54.1156 26.4986ZM53.3714 32.2956C52.9974 32.9433 52.1692 33.1652 51.5215 32.7912L50.6187 34.3549C52.13 35.2274 54.0625 34.7096 54.935 33.1984L53.3714 32.2956ZM52.8757 30.4457C53.5234 30.8197 53.7453 31.6479 53.3714 32.2956L54.935 33.1984C55.8076 31.6871 55.2898 29.7546 53.7785 28.8821L52.8757 30.4457ZM51.0259 30.9414C51.3998 30.2937 52.228 30.0718 52.8757 30.4457L53.7785 28.8821C52.2672 28.0095 50.3347 28.5273 49.4622 30.0386L51.0259 30.9414ZM49.4622 30.0386C48.5897 31.5499 49.1075 33.4824 50.6187 34.3549L51.5215 32.7912C50.8738 32.4173 50.6519 31.5891 51.0259 30.9414L49.4622 30.0386ZM39.1001 21.0227C40.5848 20.5013 41.4665 18.9741 41.1758 17.4275L39.4013 17.7612C39.5273 18.4314 39.1452 19.0932 38.5018 19.3192L39.1001 21.0227ZM39.8128 23.6826C38.1358 23.9979 37.4901 21.5881 39.1001 21.0227L38.5018 19.3192C34.7867 20.6239 36.2767 26.1847 40.1464 25.4571L39.8128 23.6826ZM43.408 25.7583C42.8865 24.2735 41.3593 23.3918 39.8128 23.6826L40.1464 25.4571C40.8166 25.331 41.4784 25.7131 41.7044 26.3566L43.408 25.7583ZM46.0678 25.0456C46.3831 26.7225 43.9734 27.3682 43.408 25.7583L41.7044 26.3566C43.0091 30.0716 48.5699 28.5816 47.8423 24.7119L46.0678 25.0456ZM48.1435 21.4504C46.6588 21.9718 45.777 23.499 46.0678 25.0456L47.8423 24.7119C47.7163 24.0417 48.0984 23.3799 48.7418 23.1539L48.1435 21.4504ZM47.4308 18.7905C49.1077 18.4752 49.7534 20.885 48.1435 21.4504L48.7418 23.1539C52.4569 21.8492 50.9669 16.2884 47.0971 17.016L47.4308 18.7905ZM43.8356 16.7148C44.3571 18.1996 45.8843 19.0813 47.4308 18.7905L47.0971 17.016C46.427 17.1421 45.7651 16.76 45.5392 16.1166L43.8356 16.7148ZM45.5392 16.1166C44.2344 12.4015 38.6737 13.8915 39.4013 17.7612L41.1758 17.4275C40.8604 15.7506 43.2702 15.1049 43.8356 16.7148L45.5392 16.1166ZM44.7949 21.9136C44.421 22.5612 43.5928 22.7832 42.9451 22.4092L42.0423 23.9729C43.5536 24.8454 45.486 24.3276 46.3586 22.8163L44.7949 21.9136ZM44.2993 20.0637C44.9469 20.4377 45.1689 21.2659 44.7949 21.9136L46.3586 22.8163C47.2311 21.3051 46.7133 19.3726 45.202 18.5L44.2993 20.0637ZM42.4494 20.5594C42.8234 19.9117 43.6516 19.6898 44.2993 20.0637L45.202 18.5C43.6908 17.6275 41.7583 18.1453 40.8857 19.6566L42.4494 20.5594ZM40.8857 19.6566C40.0132 21.1679 40.531 23.1003 42.0423 23.9729L42.9451 22.4092C42.2974 22.0353 42.0755 21.2071 42.4494 20.5594L40.8857 19.6566ZM31.972 33.1006C33.5411 32.9812 34.7881 31.7342 34.9075 30.1652L33.1071 30.0282C33.0554 30.7081 32.515 31.2485 31.835 31.3002L31.972 33.1006ZM31.972 35.8543C30.2706 35.7248 30.2706 33.2301 31.972 33.1006L31.835 31.3002C27.9089 31.599 27.9088 37.3559 31.835 37.6547L31.972 35.8543ZM34.9075 38.7897C34.7881 37.2207 33.5411 35.9737 31.972 35.8543L31.835 37.6547C32.515 37.7064 33.0554 38.2468 33.1071 38.9267L34.9075 38.7897ZM37.6612 38.7897C37.5317 40.4912 35.0369 40.4912 34.9075 38.7897L33.1071 38.9267C33.4059 42.8529 39.1628 42.8529 39.4615 38.9267L37.6612 38.7897ZM40.5966 35.8543C39.0275 35.9737 37.7806 37.2207 37.6612 38.7897L39.4615 38.9267C39.5133 38.2468 40.0536 37.7064 40.7336 37.6547L40.5966 35.8543ZM40.5966 33.1006C42.298 33.2301 42.298 35.7248 40.5966 35.8543L40.7336 37.6547C44.6598 37.3559 44.6598 31.599 40.7336 31.3002L40.5966 33.1006ZM37.6612 30.1652C37.7806 31.7343 39.0275 32.9812 40.5966 33.1006L40.7336 31.3002C40.0536 31.2485 39.5133 30.7081 39.4615 30.0282L37.6612 30.1652ZM39.4615 30.0282C39.1628 26.102 33.4059 26.102 33.1071 30.0282L34.9075 30.1652C35.0369 28.4638 37.5317 28.4637 37.6612 30.1652L39.4615 30.0282ZM37.2423 35.435C36.7134 35.9638 35.856 35.9638 35.3272 35.435L34.0504 36.7117C35.2844 37.9457 37.285 37.9457 38.519 36.7117L37.2423 35.435ZM37.2423 33.5199C37.7711 34.0488 37.7711 34.9062 37.2423 35.435L38.519 36.7117C39.7529 35.4778 39.7529 33.4771 38.519 32.2432L37.2423 33.5199ZM35.3272 33.5199C35.856 32.9911 36.7134 32.9911 37.2423 33.5199L38.519 32.2432C37.285 31.0092 35.2844 31.0092 34.0504 32.2432L35.3272 33.5199ZM34.0504 32.2432C32.8165 33.4771 32.8165 35.4778 34.0504 36.7117L35.3272 35.435C34.7983 34.9062 34.7983 34.0488 35.3272 33.5199L34.0504 32.2432Z" fill="#DC8433" mask="url(#path-1-inside-1_2_322)"/>
</g>
</svg>
