<svg width="155" height="148" viewBox="0 0 155 148" fill="none" xmlns="http://www.w3.org/2000/svg">
<g id="Group 180">
<g id="cat">
<path id="Vector 8" d="M13.3343 39.2634C10.0369 42.8256 19.8731 73.0204 25.2035 87.6724L54.9574 49.7419C48.3293 37.4251 17.4561 34.8106 13.3343 39.2634Z" fill="#272334"/>
<path id="Vector 9" d="M123.89 23.7236C128.099 26.1411 127.71 57.8952 126.989 73.47L87.6694 50.6542C90.325 36.9218 118.441 20.5945 123.89 23.7236Z" fill="#272334"/>
<path id="Vector 32" d="M118.601 32.4322C114.592 32.4274 107.279 38.052 104.123 40.8649L120.967 57.191C121.849 48.9401 122.61 32.4371 118.601 32.4322Z" fill="#FF49B6"/>
<path id="Vector 31" d="M29.3813 43.9315C23.9622 42.6393 20.2431 43.6638 19.3319 45.2023C19.1599 45.4927 19.1528 45.8411 19.2 46.1753C19.3573 47.2885 19.9603 50.4462 22.2586 57.5521C25.2921 66.9311 26.847 69.2124 26.847 69.2124L42.5932 50.1855C40.559 49.0281 35.3366 45.3516 29.3813 43.9315Z" fill="#FF49B6"/>
<path id="Vector 26" d="M64.7953 36.5537C23.6182 45.7116 16.0415 77.2894 31.3653 106.292C46.6891 135.295 120.478 124.47 127.78 89.2851C130.495 76.2004 125.375 23.0805 64.7953 36.5537Z" fill="#444E59"/>
<g id="Mask group">
<mask id="mask0_2_434" style="mask-type:alpha" maskUnits="userSpaceOnUse" x="24" y="34" width="105" height="89">
<path id="Vector 55" d="M64.8524 36.5456C23.6753 45.7036 16.0986 77.2814 31.4224 106.284C46.7463 135.287 120.535 124.462 127.837 89.2771C130.552 76.1924 125.432 23.0724 64.8524 36.5456Z" fill="#FCB358"/>
</mask>
<g mask="url(#mask0_2_434)">
<rect id="Rectangle 19" x="66.7534" y="18.8921" width="27.1595" height="27.1595" rx="4.31861" transform="rotate(36.8021 66.7534 18.8921)" fill="#272334"/>
<ellipse id="Ellipse 45" cx="81.0195" cy="113.63" rx="22.0856" ry="26.4677" transform="rotate(-8.19477 81.0195 113.63)" fill="#272334"/>
</g>
</g>
<g id="Group 162">
<line id="Line 1" x1="73.359" y1="94.9112" x2="49.5149" y2="92.5539" stroke="black" stroke-width="0.21593"/>
<line id="Line 2" x1="73.3334" y1="96.9618" x2="54.5006" y2="98.6519" stroke="black" stroke-width="0.21593"/>
<line id="Line 3" y1="-0.107965" x2="23.9603" y2="-0.107965" transform="matrix(0.926952 -0.375181 -0.375181 -0.926952 82.7134 93.4583)" stroke="black" stroke-width="0.21593"/>
<line id="Line 4" y1="-0.107965" x2="18.9085" y2="-0.107965" transform="matrix(0.980747 -0.195283 -0.195283 -0.980747 83.3354 95.4126)" stroke="black" stroke-width="0.21593"/>
</g>
<g id="Group 159">
<circle id="Ellipse 9" cx="56.2571" cy="75.1522" r="13.0318" transform="rotate(-4.93817 56.2571 75.1522)" fill="#272334"/>
<ellipse id="Ellipse 12" cx="4.25681" cy="10.4028" rx="4.25681" ry="10.4028" transform="matrix(0.987572 -0.157168 -0.00166579 0.999999 52.0825 65.4458)" fill="#56F670"/>
</g>
<g id="Group 160">
<circle id="Ellipse 10" cx="95.0107" cy="69.3097" r="13.0318" transform="rotate(-12.2938 95.0107 69.3097)" fill="#272334"/>
<ellipse id="Ellipse 13" cx="4.31476" cy="10.1862" rx="4.31476" ry="10.1862" transform="matrix(0.96646 -0.256817 0.156602 0.987662 89.2969 59.9592)" fill="#56F670"/>
<circle id="Ellipse 47" cx="59.9315" cy="69.3652" r="2.94638" transform="rotate(13.0752 59.9315 69.3652)" fill="white"/>
<circle id="Ellipse 49" cx="98.0057" cy="62.9416" r="2.94638" transform="rotate(13.0752 98.0057 62.9416)" fill="white"/>
<circle id="Ellipse 48" cx="56.0979" cy="73.9195" r="1.76783" transform="rotate(13.0752 56.0979 73.9195)" fill="white"/>
<circle id="Ellipse 50" cx="95.4026" cy="68.1732" r="1.76783" transform="rotate(13.0752 95.4026 68.1732)" fill="white"/>
</g>
<path id="Subtract" fill-rule="evenodd" clip-rule="evenodd" d="M82.527 101.717C81.6167 102.512 80.4551 103.034 79.1593 103.146C78.2499 103.225 77.371 103.093 76.5706 102.791C77.2297 102.266 77.622 101.432 77.5441 100.53C77.4205 99.0996 76.1605 98.0401 74.7299 98.1637C74.0431 98.223 73.4419 98.5442 73.0159 99.0205C72.8928 98.6233 72.8101 98.2069 72.7728 97.7757C72.4923 94.529 74.8968 91.6697 78.1434 91.3892C81.3901 91.1087 84.2494 93.5132 84.5299 96.7598C84.5358 96.8281 84.5405 96.8962 84.544 96.9641C84.0995 96.7082 83.5748 96.5809 83.025 96.6284C81.5944 96.752 80.5348 98.012 80.6584 99.4426C80.7537 100.545 81.5239 101.427 82.527 101.717Z" fill="#FF49B6"/>
<g id="Group 161">
<path id="Rectangle 20" d="M70.8569 108.11L88.5444 105.563L88.89 107.963C89.23 110.324 87.5918 112.513 85.2311 112.853L76.0926 114.169C73.7319 114.509 71.5425 112.871 71.2026 110.51L70.8569 108.11Z" fill="#FF49B6"/>
<g id="Mask group_2">
<mask id="mask1_2_434" style="mask-type:alpha" maskUnits="userSpaceOnUse" x="70" y="105" width="19" height="10">
<path id="Rectangle 21" d="M70.8569 108.11L88.5444 105.563L88.89 107.963C89.23 110.324 87.5918 112.513 85.2311 112.853L76.0926 114.169C73.7319 114.509 71.5425 112.871 71.2026 110.51L70.8569 108.11Z" fill="#FF49B6"/>
</mask>
<g mask="url(#mask1_2_434)">
<ellipse id="Ellipse 46" cx="82.8315" cy="113.199" rx="7.08053" ry="4.72035" transform="rotate(-8.19477 82.8315 113.199)" fill="#FFC8D2"/>
</g>
</g>
</g>
</g>
</g>
</svg>
