<svg width="78" height="78" viewBox="0 0 78 78" fill="none" xmlns="http://www.w3.org/2000/svg">
<g id="Sunflower Core">
<path id="Sunflower Core_2" d="M37.2297 21.347C37.4099 19.1743 40.5901 19.1743 40.7703 21.347C40.9178 23.126 43.3028 23.6004 44.1199 22.0133C45.1178 20.0749 48.0559 21.2919 47.3909 23.3682C46.8464 25.0682 48.8683 26.4192 50.2306 25.2656C51.8943 23.8567 54.1431 26.1054 52.7341 27.7692C51.5805 29.1314 52.9315 31.1533 54.6315 30.6088C56.7078 29.9438 57.9248 32.8819 55.9864 33.8799C54.3993 34.6969 54.8737 37.082 56.6527 37.2295C58.8254 37.4097 58.8254 40.5898 56.6527 40.77C54.8737 40.9175 54.3993 43.3026 55.9864 44.1196C57.9248 45.1176 56.7078 48.0557 54.6315 47.3907C52.9315 46.8462 51.5805 48.8681 52.7341 50.2303C54.1431 51.8941 51.8943 54.1428 50.2306 52.7339C48.8683 51.5803 46.8464 52.9313 47.3909 54.6313C48.0559 56.7076 45.1178 57.9246 44.1199 55.9862C43.3028 54.3991 40.9178 54.8735 40.7703 56.6525C40.5901 58.8252 37.4099 58.8252 37.2297 56.6525C37.0822 54.8735 34.6972 54.3991 33.8801 55.9862C32.8822 57.9246 29.9441 56.7076 30.6091 54.6313C31.1536 52.9313 29.1317 51.5803 27.7694 52.7339C26.1057 54.1428 23.8569 51.8941 25.2659 50.2303C26.4195 48.8681 25.0685 46.8462 23.3685 47.3907C21.2922 48.0557 20.0752 45.1176 22.0136 44.1196C23.6007 43.3026 23.1263 40.9175 21.3473 40.77C19.1746 40.5898 19.1746 37.4097 21.3473 37.2295C23.1263 37.082 23.6007 34.6969 22.0136 33.8799C20.0752 32.8819 21.2922 29.9438 23.3685 30.6088C25.0685 31.1533 26.4195 29.1314 25.2659 27.7692C23.8569 26.1054 26.1057 23.8567 27.7694 25.2656C29.1317 26.4192 31.1536 25.0682 30.6091 23.3682C29.9441 21.2919 32.8822 20.0749 33.8801 22.0133C34.6972 23.6004 37.0822 23.126 37.2297 21.347Z" fill="#F4B542" stroke="#638A4E" stroke-width="2"/>
</g>
</svg>
